<?xml version="1.0" encoding="UTF-8" standalone="no"?>
<!-- Created with Inkscape (http://www.inkscape.org/) -->

<svg
   version="1.1"
   id="svg1"
   width="800.836"
   height="221.224"
   viewBox="0 0 800.836 221.224"
   sodipodi:docname="Banner.svg"
   inkscape:version="1.3.2 (091e20e, 2023-11-25, custom)"
   xmlns:inkscape="http://www.inkscape.org/namespaces/inkscape"
   xmlns:sodipodi="http://sodipodi.sourceforge.net/DTD/sodipodi-0.dtd"
   xmlns="http://www.w3.org/2000/svg"
   xmlns:svg="http://www.w3.org/2000/svg">
  <defs
     id="defs1">
    <clipPath
       clipPathUnits="userSpaceOnUse"
       id="clipPath2">
      <path
         d="M 0,0 H 10.5 V 12 H 0 Z"
         transform="matrix(1,0,0,-1,0,12)"
         id="path2" />
    </clipPath>
    <clipPath
       clipPathUnits="userSpaceOnUse"
       id="clipPath3">
      <path
         d="M 0,0 H 10.5 V 12 H 0 Z"
         transform="matrix(1,0,0,-1,0,12)"
         id="path3" />
    </clipPath>
    <clipPath
       clipPathUnits="userSpaceOnUse"
       id="clipPath4">
      <path
         d="M 0,0 H 10.5 V 12 H 0 Z"
         transform="matrix(1,0,0,-1,0,12)"
         id="path4" />
    </clipPath>
    <clipPath
       clipPathUnits="userSpaceOnUse"
       id="clipPath5">
      <path
         d="M 0,0 H 10.5 V 12 H 0 Z"
         transform="matrix(1,0,0,-1,0,12)"
         id="path5" />
    </clipPath>
    <clipPath
       clipPathUnits="userSpaceOnUse"
       id="clipPath6">
      <path
         d="M 0,0 H 10.5 V 12 H 0 Z"
         transform="matrix(1,0,0,-1,0,12)"
         id="path6" />
    </clipPath>
    <clipPath
       clipPathUnits="userSpaceOnUse"
       id="clipPath7">
      <path
         d="M 0,0 H 10.5 V 12 H 0 Z"
         transform="matrix(1,0,0,-1,0,12)"
         id="path7" />
    </clipPath>
    <clipPath
       clipPathUnits="userSpaceOnUse"
       id="clipPath8">
      <path
         d="M 0,0 H 10.5 V 12 H 0 Z"
         transform="matrix(1,0,0,-1,0,12)"
         id="path8" />
    </clipPath>
    <clipPath
       clipPathUnits="userSpaceOnUse"
       id="clipPath9">
      <path
         d="M 0,0 H 10.5 V 12 H 0 Z"
         transform="matrix(1,0,0,-1,0,12)"
         id="path9" />
    </clipPath>
    <clipPath
       clipPathUnits="userSpaceOnUse"
       id="clipPath10">
      <path
         d="M 0,0 H 10.5 V 12 H 0 Z"
         transform="matrix(1,0,0,-1,0,12)"
         id="path10" />
    </clipPath>
    <clipPath
       clipPathUnits="userSpaceOnUse"
       id="clipPath11">
      <path
         d="M 0,0 H 10.5 V 12 H 0 Z"
         transform="matrix(1,0,0,-1,0,12)"
         id="path11" />
    </clipPath>
    <clipPath
       clipPathUnits="userSpaceOnUse"
       id="clipPath12">
      <path
         d="M 0,0 H 10.5 V 12 H 0 Z"
         transform="matrix(1,0,0,-1,0,12)"
         id="path12" />
    </clipPath>
    <linearGradient
       x1="0.90600002"
       y1="3"
       x2="722"
       y2="485.93701"
       gradientUnits="userSpaceOnUse"
       gradientTransform="scale(0.75)"
       spreadMethod="pad"
       id="linearGradient24">
      <stop
         style="stop-opacity:1;stop-color:#cbced0"
         offset="0"
         id="stop23" />
      <stop
         style="stop-opacity:1;stop-color:#84838b"
         offset="1"
         id="stop24" />
    </linearGradient>
    <linearGradient
       x1="298"
       y1="152.938"
       x2="696"
       y2="559.06201"
       gradientUnits="userSpaceOnUse"
       gradientTransform="scale(0.75)"
       spreadMethod="pad"
       id="linearGradient26">
      <stop
         style="stop-opacity:1;stop-color:#276dc3"
         offset="0"
         id="stop25" />
      <stop
         style="stop-opacity:1;stop-color:#165caa"
         offset="1"
         id="stop26" />
    </linearGradient>
    <clipPath
       clipPathUnits="userSpaceOnUse"
       id="clipPath57">
      <path
         d="m 0.20354,0.35234 c 0.11381,0.10289 0.27578,0.2813 0.33356,0.3893 0.05776,0.10798 0.0989,0.28735 0.08279,0.38914 -0.01611,0.10178 -0.11066,0.25965 -0.19898,0.3445 -0.0883,0.08485 -0.29747,0.2045 -0.4375,0.2672 -0.14006,0.06268 -0.41316,0.141 -0.5719,0.18466 -0.15873,0.04364 -0.43084,0.0939 -0.57221,0.12996 -0.1414,0.03605 -0.35157,0.08502 -0.4468,0.12993 -0.09521,0.0449 -0.20419,0.12416 -0.23962,0.19374 -0.03543,0.06958 -0.03549,0.20428 -0.01586,0.30773 0.01964,0.10346 0.10353,0.30231 0.15746,0.43787 0.05392,0.13556 0.17322,0.38515 0.2312,0.53923 0.05797,0.15407 0.15518,0.42109 0.18677,0.57123 0.03158,0.15015 0.05765,0.3897 0.04091,0.51103 -0.01674,0.12133 -0.08878,0.29065 -0.16164,0.3635 C -1.48112,5.1842 -1.65044,5.25624 -1.77177,5.27298 -1.8931,5.28972 -2.13264,5.26366 -2.28279,5.23207 -2.43295,5.20049 -2.69995,5.10329 -2.85403,5.0453 -3.0081,4.98732 -3.2577,4.86803 -3.39325,4.8141 -3.52881,4.7602 -3.72768,4.67628 -3.83112,4.65665 -3.93457,4.63701 -4.06927,4.63707 -4.13885,4.6725 -4.20844,4.70793 -4.28769,4.81691 -4.3326,4.91212 -4.3775,5.00735 -4.42647,5.21754 -4.46254,5.35892 -4.4986,5.50029 -4.54884,5.7724 -4.5925,5.93114 -4.63614,6.08987 -4.71446,6.36298 -4.77716,6.50304 -4.83984,6.6431 -4.95949,6.85225 -5.04434,6.94057 -5.1292,7.02887 -5.28708,7.12341 -5.38885,7.13953 -5.49063,7.15564 -5.67,7.1145 -5.77798,7.05673 -5.88599,6.99896 -6.06439,6.83699 -6.16728,6.72318 -6.27017,6.60936 -6.42908,6.37378 -6.51964,6.23631 -6.6102,6.09885 -6.74208,5.8556 -6.82005,5.73232 -6.89803,5.60901 -7.00952,5.42426 -7.08165,5.34756 -7.15378,5.27087 -7.26285,5.19171 -7.33998,5.1795 -7.41711,5.1673 -7.5453,5.20888 -7.6376,5.25952 -7.7299,5.31018 -7.89304,5.45143 -8.00531,5.54462 -8.11757,5.63779 -8.31816,5.82838 -8.44678,5.93114 -8.57538,6.03389 -8.79927,6.2088 -8.93231,6.28525 -9.06534,6.3617 -9.28511,6.46059 -9.40569,6.48215 -9.52625,6.50371 -9.70955,6.48746 -9.80135,6.44067 -9.89316,6.3939 -10.01402,6.2552 -10.06744,6.14499 c -0.05342,-0.11022 -0.10265,-0.34616 -0.11899,-0.49872 -0.01634,-0.15257 -0.0064,-0.43651 0.0012,-0.60097 0.0075,-0.16446 0.04381,-0.43875 0.05319,-0.58435 0.0094,-0.1456 0.02777,-0.36067 0.0145,-0.46512 -0.01326,-0.10446 -0.05501,-0.23251 -0.11022,-0.28772 -0.05519,-0.05519 -0.18326,-0.09693 -0.2877,-0.11021 -0.10446,-0.01326 -0.31952,0.00513 -0.46512,0.01451 -0.14561,0.00937 -0.41989,0.04566 -0.58435,0.05319 -0.16446,0.00754 -0.4484,0.01752 -0.60097,0.00118 -0.15257,-0.01634 -0.3885,-0.06555 -0.49872,-0.11898 -0.11021,-0.05342 -0.24891,-0.1743 -0.29568,-0.26609 -0.04679,-0.09181 -0.06304,-0.27511 -0.04148,-0.39566 0.02157,-0.12058 0.12044,-0.34035 0.1969,-0.47338 0.07645,-0.13304 0.25136,-0.35693 0.35411,-0.48553 0.10276,-0.12862 0.29336,-0.32921 0.38653,-0.44147 0.09317,-0.11227 0.23443,-0.2754 0.28508,-0.3677 0.05065,-0.09232 0.09223,-0.22049 0.08003,-0.29763 C -11.71135,0.7432 -11.79051,0.63414 -11.8672,0.56201 -11.9439,0.48988 -12.12865,0.37839 -12.25195,0.30042 -12.37526,0.22244 -12.61848,0.09055 -12.75595,0 c -0.13748,-0.09055 -0.37305,-0.24945 -0.48686,-0.35234 -0.11382,-0.10289 -0.27581,-0.2813 -0.33356,-0.3893 -0.05777,-0.10798 -0.09891,-0.28735 -0.08279,-0.38914 0.01611,-0.10178 0.11065,-0.25965 0.19896,-0.3445 0.0883,-0.08485 0.29747,-0.2045 0.43753,-0.2672 0.14006,-0.06268 0.41316,-0.141 0.57189,-0.18466 0.15874,-0.04364 0.43084,-0.0939 0.57222,-0.12996 0.14138,-0.03605 0.35156,-0.08502 0.44678,-0.12993 0.09523,-0.0449 0.2042,-0.12416 0.23964,-0.19374 0.03543,-0.06958 0.03549,-0.20428 0.01586,-0.30773 -0.01964,-0.10346 -0.10355,-0.30231 -0.15748,-0.43787 -0.05392,-0.13556 -0.1732,-0.38515 -0.23118,-0.53923 -0.05798,-0.15407 -0.15518,-0.42109 -0.18677,-0.57123 -0.0316,-0.15015 -0.05765,-0.3897 -0.04091,-0.51103 0.01674,-0.12133 0.08878,-0.29065 0.16162,-0.3635 0.07285,-0.07284 0.24218,-0.14488 0.3635,-0.16162 0.12132,-0.01674 0.36088,0.00932 0.51103,0.04091 0.15015,0.03158 0.41716,0.12878 0.57123,0.18677 0.15407,0.05798 0.40367,0.17727 0.53923,0.2312 0.13556,0.0539 0.33441,0.13782 0.43786,0.15745 0.10345,0.01964 0.23815,0.01958 0.30773,-0.01585 0.06958,-0.03543 0.14885,-0.14441 0.19375,-0.23962 0.04491,-0.09523 0.09387,-0.30542 0.12993,-0.4468 0.03606,-0.14137 0.08632,-0.41348 0.12996,-0.57222 0.04366,-0.15873 0.12197,-0.43184 0.18466,-0.5719 0.0627,-0.14006 0.18233,-0.34921 0.2672,-0.43753 0.08486,-0.0883 0.24272,-0.18284 0.3445,-0.19896 0.10177,-0.01611 0.28114,0.02503 0.38914,0.0828 0.10799,0.05777 0.28641,0.21974 0.3893,0.33355 0.10288,0.11382 0.26178,0.3494 0.35234,0.48687 0.09056,0.13746 0.22246,0.38071 0.30043,0.50399 0.07797,0.12331 0.18946,0.30806 0.2616,0.38476 0.07213,0.07669 0.18118,0.15585 0.25831,0.16806 0.07714,0.0122 0.20533,-0.02938 0.29763,-0.08002 0.09231,-0.05066 0.25545,-0.19191 0.3677,-0.2851 0.11228,-0.09317 0.31287,-0.28376 0.44147,-0.38652 0.12862,-0.10275 0.35251,-0.27766 0.48554,-0.35411 0.13304,-0.07645 0.35281,-0.17534 0.47337,-0.1969 0.12057,-0.02156 0.30386,-0.00531 0.39567,0.04148 0.0918,0.04677 0.21267,0.18547 0.26609,0.29568 0.05342,0.11022 0.10264,0.34616 0.11899,0.49872 0.01634,0.15257 0.00636,0.43651 -0.00119,0.60097 -0.00754,0.16446 -0.04381,0.43875 -0.05318,0.58435 -0.00939,0.1456 -0.02779,0.36067 -0.01451,0.46512 0.01327,0.10446 0.05502,0.23251 0.11021,0.28772 0.05521,0.05519 0.18326,0.09693 0.28772,0.11021 0.10445,0.01326 0.31951,-0.00513 0.46512,-0.01451 0.1456,-0.00937 0.41989,-0.04566 0.58435,-0.05319 0.16444,-0.00754 0.4484,-0.01752 0.60095,-0.00118 0.15257,0.01634 0.38851,0.06555 0.49872,0.11898 0.11022,0.05342 0.24892,0.1743 0.2957,0.26609 0.04677,0.09181 0.06302,0.27511 0.04147,0.39566 -0.02156,0.12058 -0.12045,0.34035 -0.1969,0.47338 -0.07644,0.13304 -0.25137,0.35693 -0.35411,0.48553 -0.10275,0.12862 -0.29336,0.32921 -0.38653,0.44147 -0.09317,0.11227 -0.23442,0.2754 -0.28508,0.3677 -0.05065,0.09232 -0.09223,0.22049 -0.08002,0.29763 0.01221,0.07714 0.09136,0.1862 0.16806,0.25833 0.07669,0.07213 0.26145,0.18362 0.38474,0.26159 0.1233,0.07798 0.43408,0.25876 0.50401,0.30042 0.06993,0.04166 -0.06755,-0.04887 0,0 0.06754,0.04887 0.37303,0.24945 0.48685,0.35234 z M -4.8189,0 c 0,0.93929 -0.76144,1.70073 -1.70074,1.70073 -0.9393,0 -1.70073,-0.76144 -1.70073,-1.70073 0,-0.93929 0.76143,-1.70073 1.70073,-1.70073 0.9393,0 1.70074,0.76144 1.70074,1.70073 z"
         transform="translate(2.4999999e-6)"
         clip-rule="evenodd"
         id="path57" />
    </clipPath>
    <clipPath
       clipPathUnits="userSpaceOnUse"
       id="clipPath59">
      <path
         d="m 13.24281,0.35234 c 0.11382,0.10289 0.27581,0.2813 0.33356,0.3893 0.05777,0.10798 0.09891,0.28735 0.08279,0.38914 -0.01611,0.10178 -0.11065,0.25965 -0.19896,0.3445 -0.0883,0.08485 -0.29747,0.2045 -0.43753,0.2672 -0.14006,0.06268 -0.41316,0.141 -0.57189,0.18466 -0.15874,0.04364 -0.43084,0.0939 -0.57222,0.12996 -0.14138,0.03605 -0.35156,0.08502 -0.44678,0.12993 -0.09523,0.0449 -0.2042,0.12416 -0.23964,0.19374 -0.03543,0.06958 -0.03549,0.20428 -0.01586,0.30773 0.01964,0.10346 0.10355,0.30231 0.15748,0.43787 0.05392,0.13556 0.1732,0.38515 0.23118,0.53923 0.05798,0.15407 0.15518,0.42109 0.18677,0.57123 0.0316,0.15015 0.05765,0.3897 0.04091,0.51103 C 11.77588,4.86919 11.70384,5.03851 11.631,5.11136 11.55815,5.1842 11.38882,5.25624 11.2675,5.27298 11.14618,5.28972 10.90662,5.26366 10.75647,5.23207 10.60632,5.20049 10.33931,5.10329 10.18524,5.0453 10.03117,4.98732 9.78157,4.86803 9.64601,4.8141 9.51045,4.7602 9.3116,4.67628 9.20815,4.65665 9.1047,4.63701 8.97,4.63707 8.90042,4.6725 8.83084,4.70793 8.75157,4.81691 8.70667,4.91212 8.66176,5.00735 8.6128,5.21754 8.57674,5.35892 8.54068,5.50029 8.49042,5.7724 8.44678,5.93114 8.40312,6.08987 8.32481,6.36298 8.26212,6.50304 8.19942,6.6431 8.07979,6.85225 7.99492,6.94057 7.91006,7.02887 7.7522,7.12341 7.65042,7.13953 7.54865,7.15564 7.36928,7.1145 7.26128,7.05673 7.15329,6.99896 6.97487,6.83699 6.87198,6.72318 6.7691,6.60936 6.6102,6.37378 6.51964,6.23631 6.42908,6.09885 6.29718,5.8556 6.21921,5.73232 6.14124,5.60901 6.02975,5.42426 5.95761,5.34756 5.88548,5.27087 5.77643,5.19171 5.6993,5.1795 5.62216,5.1673 5.49397,5.20888 5.40167,5.25952 5.30936,5.31018 5.14622,5.45143 5.03397,5.54462 4.92169,5.63779 4.7211,5.82838 4.5925,5.93114 4.46388,6.03389 4.23999,6.2088 4.10696,6.28525 3.97392,6.3617 3.75415,6.46059 3.63359,6.48215 3.51302,6.50371 3.32973,6.48746 3.23792,6.44067 3.14612,6.3939 3.02525,6.2552 2.97183,6.14499 2.91841,6.03477 2.86919,5.79883 2.85284,5.64627 2.8365,5.4937 2.84648,5.20976 2.85403,5.0453 2.86157,4.88084 2.89784,4.60655 2.90721,4.46095 2.9166,4.31535 2.935,4.10028 2.92172,3.99583 2.90845,3.89137 2.8667,3.76332 2.81151,3.70811 2.7563,3.65292 2.62825,3.61118 2.52379,3.5979 2.41934,3.58464 2.20428,3.60303 2.05867,3.61241 1.91307,3.62178 1.63878,3.65807 1.47432,3.6656 1.30988,3.67314 1.02592,3.68312 0.87337,3.66678 0.7208,3.65044 0.48486,3.60123 0.37465,3.5478 0.26443,3.49438 0.12573,3.3735 0.07895,3.28171 0.03218,3.1899 0.01593,3.0066 0.03748,2.88605 0.05904,2.76547 0.15793,2.5457 0.23438,2.41267 0.31082,2.27963 0.48575,2.05574 0.58849,1.92714 0.69124,1.79852 0.88185,1.59793 0.97502,1.48567 1.06819,1.3734 1.20944,1.21027 1.2601,1.11797 1.31075,1.02565 1.35233,0.89748 1.34012,0.82034 1.32791,0.7432 1.24876,0.63414 1.17206,0.56201 1.09537,0.48988 0.91061,0.37839 0.78732,0.30042 0.66402,0.22244 0.42078,0.09055 0.28331,0 0.14584,-0.09055 -0.08972,-0.24945 -0.20354,-0.35234 c -0.11381,-0.10289 -0.27578,-0.2813 -0.33356,-0.3893 -0.05776,-0.10798 -0.0989,-0.28735 -0.08279,-0.38914 0.01611,-0.10178 0.11066,-0.25965 0.19898,-0.3445 0.0883,-0.08485 0.29747,-0.2045 0.4375,-0.2672 0.14006,-0.06268 0.41316,-0.141 0.5719,-0.18466 C 0.74722,-1.97078 1.01933,-2.02104 1.1607,-2.0571 1.3021,-2.09315 1.51227,-2.14212 1.6075,-2.18703 1.70271,-2.23193 1.81169,-2.31119 1.84712,-2.38077 1.88255,-2.45035 1.88261,-2.58505 1.86298,-2.6885 1.84334,-2.79196 1.75945,-2.99081 1.70552,-3.12637 1.6516,-3.26193 1.5323,-3.51152 1.47432,-3.6656 1.41635,-3.81967 1.31914,-4.08669 1.28755,-4.23683 1.25597,-4.38698 1.2299,-4.62653 1.24664,-4.74786 c 0.01674,-0.12133 0.08878,-0.29065 0.16164,-0.3635 0.07284,-0.07284 0.24216,-0.14488 0.36349,-0.16162 0.12133,-0.01674 0.36087,0.00932 0.51102,0.04091 0.15016,0.03158 0.41716,0.12878 0.57124,0.18677 0.15407,0.05798 0.40367,0.17727 0.53922,0.2312 0.13556,0.0539 0.33443,0.13782 0.43787,0.15745 0.10345,0.01964 0.23815,0.01958 0.30773,-0.01585 0.06959,-0.03543 0.14884,-0.14441 0.19375,-0.23962 0.0449,-0.09523 0.09387,-0.30542 0.12994,-0.4468 0.03606,-0.14137 0.0863,-0.41348 0.12996,-0.57222 0.04364,-0.15873 0.12196,-0.43184 0.18466,-0.5719 0.06268,-0.14006 0.18233,-0.34921 0.26718,-0.43753 0.08486,-0.0883 0.24274,-0.18284 0.34451,-0.19896 0.10178,-0.01611 0.28115,0.02503 0.38913,0.0828 0.10801,0.05777 0.28641,0.21974 0.3893,0.33355 0.10289,0.11382 0.2618,0.3494 0.35236,0.48687 0.09056,0.13746 0.22244,0.38071 0.30041,0.50399 0.07798,0.12331 0.18947,0.30806 0.2616,0.38476 0.07213,0.07669 0.1812,0.15585 0.25833,0.16806 0.07713,0.0122 0.20532,-0.02938 0.29762,-0.08002 0.0923,-0.05066 0.25544,-0.19191 0.36771,-0.2851 0.11226,-0.09317 0.31285,-0.28376 0.44147,-0.38652 0.1286,-0.10275 0.35249,-0.27766 0.48553,-0.35411 0.13303,-0.07645 0.3528,-0.17534 0.47338,-0.1969 0.12056,-0.02156 0.30386,-0.00531 0.39566,0.04148 0.09181,0.04677 0.21267,0.18547 0.26609,0.29568 0.05342,0.11022 0.10265,0.34616 0.11899,0.49872 0.01634,0.15257 0.0064,0.43651 -0.0012,0.60097 -0.0075,0.16446 -0.04381,0.43875 -0.05319,0.58435 -0.0094,0.1456 -0.02777,0.36067 -0.0145,0.46512 0.01326,0.10446 0.05501,0.23251 0.11022,0.28772 0.05519,0.05519 0.18326,0.09693 0.2877,0.11021 0.10446,0.01326 0.31952,-0.00513 0.46512,-0.01451 0.14561,-0.00937 0.41989,-0.04566 0.58435,-0.05319 0.16446,-0.00754 0.4484,-0.01752 0.60097,-0.00118 0.15257,0.01634 0.3885,0.06555 0.49872,0.11898 0.11021,0.05342 0.24891,0.1743 0.29568,0.26609 0.04679,0.09181 0.06304,0.27511 0.04148,0.39566 -0.02157,0.12058 -0.12044,0.34035 -0.1969,0.47338 -0.07645,0.13304 -0.25136,0.35693 -0.35411,0.48553 -0.10276,0.12862 -0.29336,0.32921 -0.38653,0.44147 -0.09317,0.11227 -0.23443,0.2754 -0.28508,0.3677 -0.05065,0.09232 -0.09223,0.22049 -0.08003,0.29763 0.01221,0.07714 0.09137,0.1862 0.16806,0.25833 0.0767,0.07213 0.26145,0.18362 0.38475,0.26159 0.12331,0.07798 0.43409,0.25876 0.504,0.30042 0.06993,0.04166 -0.06753,-0.04887 0,0 0.06755,0.04887 0.37305,0.24945 0.48686,0.35234 z M 8.22037,0 c 0,0.93929 -0.76143,1.70073 -1.70073,1.70073 C 5.58034,1.70073 4.8189,0.93929 4.8189,0 c 0,-0.93929 0.76144,-1.70073 1.70074,-1.70073 0.9393,0 1.70073,0.76144 1.70073,1.70073 z"
         transform="translate(2.4999999e-6)"
         clip-rule="evenodd"
         id="path59" />
    </clipPath>
  </defs>
  <sodipodi:namedview
     id="namedview1"
     pagecolor="#ffffff"
     bordercolor="#000000"
     borderopacity="0.25"
     inkscape:showpageshadow="2"
     inkscape:pageopacity="0.0"
     inkscape:pagecheckerboard="0"
     inkscape:deskcolor="#d1d1d1"
     showgrid="false"
     inkscape:zoom="1.4472376"
     inkscape:cx="400.418"
     inkscape:cy="110.55544"
     inkscape:window-width="1920"
     inkscape:window-height="991"
     inkscape:window-x="-9"
     inkscape:window-y="-9"
     inkscape:window-maximized="1"
     inkscape:current-layer="g1">
    <inkscape:page
       x="0"
       y="0"
       inkscape:label="1"
       id="page1"
       width="800.836"
       height="221.224"
       margin="0"
       bleed="0" />
  </sodipodi:namedview>
  <g
     id="g1"
     inkscape:groupmode="layer"
     inkscape:label="1">
    <path
       id="path1"
       d="m 0,72.00124 -62.3548,-36.00049 -1e-5,-72.00122 L 0,-72.00124 l 62.3548,36.00049 1e-5,72.00122 z"
       style="fill:#cb6015;fill-opacity:1;fill-rule:nonzero;stroke:#a6a6a6;stroke-width:1.99255;stroke-linecap:butt;stroke-linejoin:miter;stroke-miterlimit:10;stroke-dasharray:none;stroke-opacity:1"
       transform="matrix(1.3333333,0,0,-1.3333333,703.08533,110.612)" />
    <g
       id="g23">
      <path
         d="M 1.281,11.727 V 0.273 h 5.254 l 2.692,2.688 v 8.766 z"
         style="fill:#ffffff;fill-opacity:1;fill-rule:nonzero;stroke:none"
         transform="matrix(4.3649733,0,0,4.3649733,627.256,73.082987)"
         clip-path="url(#clipPath2)"
         id="path13" />
      <path
         d="m 6.422,0.551 2.531,2.527 v 8.371 H 1.555 V 0.551 H 6.422 M 6.652,0 H 1.004 V 12 H 9.5 V 2.848 Z"
         style="fill:#000000;fill-opacity:1;fill-rule:nonzero;stroke:none"
         transform="matrix(4.3649733,0,0,4.3649733,627.256,73.082987)"
         clip-path="url(#clipPath3)"
         id="path14" />
      <path
         d="M 9.227,11.727 H 1.281 V 0.273 h 5.254 l 0.063,0.063 v 2.566 h 2.57 l 0.059,0.059 z"
         style="fill:#ffffff;fill-opacity:1;fill-rule:nonzero;stroke:none"
         transform="matrix(4.3649733,0,0,4.3649733,627.256,73.082987)"
         clip-path="url(#clipPath4)"
         id="path15" />
      <path
         d="M 6.324,0.551 V 3.18 h 2.625 v 8.269 H 1.555 V 0.551 H 6.324 M 6.652,0 H 1.004 V 12 H 9.5 V 2.848 L 9.281,2.629 H 6.875 V 0.223 Z"
         style="fill:#000000;fill-opacity:1;fill-rule:nonzero;stroke:none"
         transform="matrix(4.3649733,0,0,4.3649733,627.256,73.082987)"
         clip-path="url(#clipPath5)"
         id="path16" />
      <path
         d="M 8.391,2.469 H 7.059 V 1.125 l 1.332,1.297 z"
         style="fill:#000000;fill-opacity:1;fill-rule:nonzero;stroke:none"
         transform="matrix(4.3649733,0,0,4.3649733,627.256,73.082987)"
         clip-path="url(#clipPath6)"
         id="path17" />
      <path
         d="m 7.332,1.777 0.43,0.418 H 7.332 V 1.777 M 7.16,0.84 H 6.781 V 2.746 H 8.664 V 2.305 Z"
         style="fill:#000000;fill-opacity:1;fill-rule:nonzero;stroke:none"
         transform="matrix(4.3649733,0,0,4.3649733,627.256,73.082987)"
         clip-path="url(#clipPath7)"
         id="path18" />
      <path
         d="M 10.234,9.242 H 0.273 V 5.223 L 0.781,4.715 V 5.352 H 9.727 V 4.715 l 0.507,0.508 z"
         style="fill:#ed1c24;fill-opacity:1;fill-rule:nonzero;stroke:none"
         transform="matrix(4.3649733,0,0,4.3649733,627.256,73.082987)"
         clip-path="url(#clipPath8)"
         id="path19" />
      <path
         d="m 9.949,5.254 0.059,0.058 V 9.02 H 0.5 V 5.312 L 0.559,5.254 v 0.32 h 9.39 V 5.254 M 9.5,4.172 V 5.129 H 1.004 V 4.172 L 0.051,5.129 V 9.465 H 10.457 V 5.129 Z"
         style="fill:#ed1c24;fill-opacity:1;fill-rule:nonzero;stroke:none"
         transform="matrix(4.3649733,0,0,4.3649733,627.256,73.082987)"
         clip-path="url(#clipPath9)"
         id="path20" />
      <path
         d="M 1.609,8.801 V 5.938 h 1.047 c 0.156,0 0.305,0.015 0.446,0.046 0.14,0.032 0.265,0.082 0.371,0.161 0.105,0.07 0.187,0.171 0.25,0.293 C 3.789,6.559 3.82,6.707 3.82,6.887 3.82,7.062 3.789,7.215 3.723,7.34 3.66,7.469 3.578,7.57 3.473,7.656 3.367,7.734 3.246,7.793 3.105,7.836 2.969,7.875 2.824,7.891 2.676,7.891 H 2.367 v 0.91 z M 2.367,7.293 H 2.641 C 2.789,7.293 2.898,7.258 2.969,7.188 3.043,7.117 3.078,7.016 3.078,6.887 3.078,6.758 3.039,6.668 2.961,6.613 2.883,6.562 2.77,6.535 2.621,6.535 H 2.367 Z"
         style="fill:#ffffff;fill-opacity:1;fill-rule:nonzero;stroke:none"
         transform="matrix(4.3649733,0,0,4.3649733,627.256,73.082987)"
         clip-path="url(#clipPath10)"
         id="path21" />
      <path
         d="M 4.289,8.801 V 5.938 h 0.844 c 0.219,0 0.414,0.023 0.594,0.078 0.183,0.054 0.339,0.136 0.468,0.25 0.129,0.117 0.227,0.261 0.301,0.441 0.07,0.18 0.109,0.395 0.109,0.648 C 6.605,7.605 6.57,7.824 6.5,8.008 6.43,8.188 6.328,8.34 6.199,8.457 6.074,8.574 5.922,8.66 5.746,8.715 5.57,8.773 5.383,8.801 5.176,8.801 Z M 5.043,8.191 H 5.09 C 5.191,8.191 5.289,8.18 5.379,8.156 5.473,8.129 5.547,8.086 5.613,8.023 5.68,7.961 5.734,7.879 5.773,7.77 5.809,7.66 5.828,7.523 5.828,7.355 5.828,7.188 5.809,7.051 5.773,6.945 5.734,6.84 5.68,6.758 5.613,6.699 5.547,6.641 5.473,6.602 5.379,6.578 5.289,6.555 5.191,6.543 5.09,6.543 H 5.043 Z"
         style="fill:#ffffff;fill-opacity:1;fill-rule:nonzero;stroke:none"
         transform="matrix(4.3649733,0,0,4.3649733,627.256,73.082987)"
         clip-path="url(#clipPath11)"
         id="path22" />
      <path
         d="M 7.117,8.801 V 5.938 H 8.984 V 6.57 H 7.875 V 7.117 H 8.824 V 7.75 H 7.875 v 1.051 z"
         style="fill:#ffffff;fill-opacity:1;fill-rule:nonzero;stroke:none"
         transform="matrix(4.3649733,0,0,4.3649733,627.256,73.082987)"
         clip-path="url(#clipPath12)"
         id="path23" />
    </g>
    <g
       id="g27">
      <path
         d="M 271.09,364.453 C 121.746,364.453 0.68,283.371 0.68,183.352 0.68,83.332 121.746,2.25 271.09,2.25 c 149.344,0 270.41,81.082 270.41,181.102 0,100.019 -121.066,181.101 -270.41,181.101 z M 312.48,73.055 c -113.515,0 -205.535,55.429 -205.535,123.808 0,68.379 92.02,123.809 205.535,123.809 113.512,0 197.286,-37.899 197.286,-123.809 0,-85.886 -83.774,-123.808 -197.286,-123.808 z"
         transform="matrix(0.0844,0,0,0.0844,733.08267,90.9647)"
         style="fill:url(#linearGradient24);fill-rule:evenodd;stroke:none"
         id="path26" />
      <path
         d="m 412.5,282.75 c 0,0 16.367,4.938 25.875,9.75 3.301,1.668 9.008,5 13.125,9.375 4.035,4.285 6,8.625 6,8.625 L 522,419.25 417.75,419.297 369,327.75 c 0,0 -9.984,-17.152 -16.125,-22.125 C 347.75,301.477 345.566,300 340.5,300 c -3.527,0 -24.77,0 -24.77,0 l 0.02,119.23 -92.25,0.04 V 114.703 h 185.25 c 0,0 84.375,1.524 84.375,81.797 0,80.273 -80.625,86.25 -80.625,86.25 z m -40.125,-101.98 -55.848,-0.04 -0.027,51.79 55.875,-0.02 c 0,0 25.875,-0.078 25.875,-26.344 0,-26.789 -25.875,-25.386 -25.875,-25.386 z"
         transform="matrix(0.0844,0,0,0.0844,733.08267,90.9647)"
         style="fill:url(#linearGradient26);fill-rule:evenodd;stroke:none"
         id="path27" />
    </g>
    <path
       id="path28"
       d="M 4.5459933,-3.2505878 C 4.5445503,-4.0361301 4.5119011,-4.9632334 4.0890565,-5.772304 3.6880006,-6.5221448 3.0027392,-6.7523709 2.4986782,-6.7547669 c -0.5977787,-0.00502 -1.2854361,0.2688135 -1.69696164,1.1483028 -0.33697119,0.7291669 -0.38369973,1.5602554 -0.38258493,2.3575124 0.001443,0.7855423 0.0396708,1.5134955 0.34766534,2.2372816 C 1.1619461,-0.0509645 1.9165113,0.21637471 2.4908606,0.22073966 3.2178293,0.21765593 3.8388082,-0.18700972 4.1513654,-0.88168877 4.4508954,-1.5298371 4.5512752,-2.1835641 4.5459933,-3.2505878 Z M 2.49621,-0.38875373 C 1.9687196,-0.39180606 1.5571627,-0.76677589 1.3546006,-1.4876085 1.2063461,-2.0545091 1.1980119,-2.5940424 1.1962408,-3.3678699 c -0.00571,-0.633251 -6.878e-4,-1.2310297 0.1670269,-1.7773553 0.063824,-0.1857947 0.3093746,-0.9995898 1.1183464,-1.0003765 0.7738275,-0.00177 1.0339787,0.7558465 1.1113875,0.9221496 0.1833987,0.567885 0.1764085,1.235952 0.1824456,1.8574883 0.00505,0.6566804 -6.249e-4,1.2778885 -0.1706366,1.9062171 -0.2598905,0.90718477 -0.7919751,1.06813847 -1.1086006,1.07099297 z m 0,0"
       style="fill:#000000;fill-opacity:1;fill-rule:nonzero;stroke:none"
       aria-label="0"
       transform="matrix(0.03733333,1.3327467,-1.3327467,0.03733333,646.30667,125.73067)" />
    <path
       id="path29"
       d="M 1.7972066,-0.82502369 0.96653094,-0.82610663 0.965448,0.004569 1.7961236,0.00565195 Z m 0,0"
       style="fill:#000000;fill-opacity:1;fill-rule:nonzero;stroke:none"
       aria-label="."
       transform="matrix(0.37786667,1.2785867,-1.2785867,0.37786667,646.684,132.36933)" />
    <path
       id="path30"
       d="m 2.9781636,-6.7493641 -0.2049983,-0.00155 c -0.5835151,0.6186709 -1.4157185,0.6324968 -1.88014595,0.6511049 l 0.003676,0.5788793 c 0.32165685,-0.00963 0.81219635,-0.026036 1.29207095,-0.2274288 l -8.243e-4,5.17548979 -1.24609835,-0.005373 0.003676,0.57887930388 3.27217595,-0.007492974 -0.00368,-0.5788793 -1.2422,0.0107354 z m 0,0"
       style="fill:#000000;fill-opacity:1;fill-rule:nonzero;stroke:none"
       aria-label="1"
       transform="matrix(0.69456,1.1380667,-1.1380667,0.69456,647.56667,136.01333)" />
    <path
       id="path31"
       d="M 4.1317592,-6.5507141 C 3.6178293,-6.7492376 3.2187034,-6.7537556 3.0851403,-6.7497615 c -1.4150038,-8.76e-4 -2.65528896,1.4049159 -2.65738454,3.5356716 -0.001752,2.83000765 1.23088044,3.43790834 2.07116374,3.44260229 0.5912204,-0.002255 1.030295,-0.2436732 1.4130969,-0.68187597 0.4475865,-0.5069813 0.633952,-0.98044302 0.6249246,-1.76375802 0.00487,-1.2814408 -0.6481761,-2.3838168 -1.6055225,-2.3829535 -0.3075944,-0.00417 -1.0641625,0.073984 -1.6852606,0.8308954 0.1276663,-1.6110924 0.9274856,-2.4093399 1.8428004,-2.4058614 0.3826259,0.00295 0.692999,0.065656 1.0450557,0.2155475 z M 1.2701178,-2.177018 c -0.011462,-0.1425947 -0.0099,-0.1590946 0.00261,-0.2910944 0.00278,-0.7322519 0.4439445,-1.5228593 1.2767595,-1.5271969 0.466689,-0.00573 0.7508347,0.2459406 0.9564746,0.6233571 0.2072031,0.3609165 0.2329065,0.7046373 0.2236989,1.1532631 0.0092,0.3421576 0.00746,0.7998151 -0.2311799,1.2100555 C 3.3308711,-0.73317166 3.0729485,-0.38302602 2.498228,-0.37920804 1.4418818,-0.38772419 1.306416,-1.8572655 1.2701178,-2.177018 Z m 0,0"
       style="fill:#000000;fill-opacity:1;fill-rule:nonzero;stroke:none"
       aria-label="6"
       transform="matrix(1.0274667,0.84962667,-0.84962667,1.0274667,651.068,141.728)" />
    <path
       id="path32"
       d="M 4.5443445,-3.2433886 C 4.5402637,-4.0299717 4.5036843,-4.9553733 4.0872517,-5.7621668 3.6855503,-6.5229405 2.9897968,-6.7478915 2.496341,-6.7510935 c -0.5994675,-0.00806 -1.2859691,0.2713757 -1.69910299,1.14376 -0.32792619,0.7376695 -0.38004176,1.5631323 -0.3752019,2.3614101 0.003322,0.7748884 0.0394502,1.5124153 0.34455746,2.2324829 0.39121673,0.96110223 1.14923933,1.24073131 1.72455823,1.23861961 0.7164147,4.7384e-4 1.3353335,-0.41550789 1.6546013,-1.10563941 0.2989148,-0.6418344 0.396742,-1.3058483 0.3985914,-2.3629283 z m -2.045887,2.85740552 C 1.9699175,-0.38690778 1.5581821,-0.75947821 1.3583274,-1.4863777 1.2041843,-2.0518283 1.1926551,-2.591304 1.2017873,-3.3552567 c -0.00591,-0.6337925 -0.00954,-1.2325009 0.1543547,-1.783363 0.069718,-0.1924293 0.3221616,-1.0074074 1.1328933,-1.0013116 0.7631936,-0.00256 1.0230402,0.7439309 1.0936594,0.927251 0.1892273,0.5631733 0.1857171,1.2328092 0.1908652,1.854907 -0.00503,0.6462464 1.196e-4,1.2683442 -0.1818479,1.9025876 -0.2588252,0.89760019 -0.7876734,1.07285549 -1.0932545,1.06920262 z m 0,0"
       style="fill:#000000;fill-opacity:1;fill-rule:nonzero;stroke:none"
       aria-label="0"
       transform="matrix(1.3304667,0.08636,-0.08636,1.3304667,661.69333,148.14933)" />
    <path
       id="path33"
       d="M 1.7921328,-0.83234375 H 0.96010156 V -3.125e-4 H 1.7921328 Z m 0,0"
       style="fill:#000000;fill-opacity:1;fill-rule:nonzero;stroke:none"
       aria-label="."
       transform="matrix(1.3333333,0,0,1.3333333,668.32533,148.40667)" />
    <path
       id="path34"
       d="M 2.9762813,-6.7503125 H 2.7770625 C 2.191125,-6.1409375 1.3590938,-6.1175 0.89034375,-6.0940625 v 0.5742187 C 1.2184688,-5.5315625 1.6989375,-5.5432813 2.191125,-5.7542188 v 5.17968755 H 0.9489375 V -3.125e-4 H 4.2184688 V -0.57453125 H 2.9762813 Z m 0,0"
       style="fill:#000000;fill-opacity:1;fill-rule:nonzero;stroke:none"
       aria-label="1"
       transform="matrix(1.3333333,0,0,1.3333333,672.016,148.40667)" />
    <path
       id="path35"
       d="M 2.97575,-6.7503125 H 2.7765313 c -0.5859375,0.609375 -1.4179688,0.6328125 -1.8867188,0.65625 v 0.5742187 c 0.328125,-0.011719 0.8085938,-0.023437 1.3007813,-0.234375 v 5.17968755 H 0.94840625 V -3.125e-4 H 4.2179375 V -0.57453125 H 2.97575 Z m 0,0"
       style="fill:#000000;fill-opacity:1;fill-rule:nonzero;stroke:none"
       aria-label="1"
       transform="matrix(1.3333333,0,0,1.3333333,678.65733,148.40667)" />
    <path
       id="path36"
       d="m 4.545018,-3.2452175 c 0.00511,-0.7791249 -0.033971,-1.701679 -0.4534259,-2.522369 -0.397361,-0.7489755 -1.0861398,-0.983008 -1.5910215,-0.9806771 -0.5940964,0.00492 -1.2914455,0.271466 -1.69873127,1.1438506 -0.33615385,0.7240704 -0.38887741,1.5599979 -0.38738651,2.3543261 0.001491,0.7943283 0.0439983,1.5166506 0.33894662,2.2378074 C 1.1648324,-0.04356669 1.914716,0.22718017 2.482708,0.22455792 3.213926,0.22335838 3.830082,-0.18862322 4.1424281,-0.88429237 4.4441644,-1.5211535 4.5499711,-2.1723439 4.545018,-3.2452175 Z M 2.4972945,-0.38703865 C 1.9706105,-0.39331216 1.5597943,-0.75702733 1.3583629,-1.4916735 1.2143169,-2.0524837 1.1987881,-2.5877721 1.199594,-3.3559959 1.196684,-3.987098 1.196064,-4.5920956 1.3632664,-5.1434615 c 0.062236,-0.189622 0.3131861,-0.9851156 1.1227177,-0.9932055 0.7791248,0.00511 1.0284631,0.7460618 1.1076507,0.9285021 0.1810517,0.5628157 0.1819599,1.2309235 0.1891757,1.8511244 -0.00569,0.6529045 0.00152,1.2731055 -0.184892,1.9050817 -0.252664,0.89560957 -0.7850729,1.06346334 -1.100624,1.06492015 z m 0,0"
       style="fill:#000000;fill-opacity:1;fill-rule:nonzero;stroke:none"
       aria-label="0"
       transform="matrix(1.2401733,-0.48944,0.48944,1.2401733,691.16267,148.24133)" />
    <path
       id="path37"
       d="m 1.7932111,-0.83136747 -0.82975977,-5.3759e-4 -5.376e-4,0.82975975 0.82975977,5.3759e-4 z m 0,0"
       style="fill:#000000;fill-opacity:1;fill-rule:nonzero;stroke:none"
       aria-label="."
       transform="matrix(1.07284,-0.79158667,0.79158667,1.07284,697.27333,145.62)" />
    <path
       id="path38"
       d="m 2.9753678,-6.7537106 -0.1921654,0.00414 C 2.1917315,-6.138619 1.3553742,-6.1127332 0.89421474,-6.0877862 l -0.004053,0.5747072 C 1.2177188,-5.5358602 1.6935659,-5.5425415 2.1926703,-5.7634198 l 0.00382,5.18507564 -1.24271967,0.00677 -0.004053,0.57470719 3.27613247,-0.002706206 0.00405,-0.574707184 -1.2500635,-0.002363 z m 0,0"
       style="fill:#000000;fill-opacity:1;fill-rule:nonzero;stroke:none"
       aria-label="1"
       transform="matrix(0.83549333,-1.0390267,1.0390267,0.83549333,700.39467,143.54667)" />
    <path
       id="path39"
       d="m 3.7077645,-1.7108453 0.9861956,0.00838 -0.0057,-0.607796 -0.9861957,-0.00838 0.009,-4.2222654 -0.9081488,0.00106 -2.52217439,4.224586 0.005698,0.607796 2.62827369,0.00632 -2.836e-4,1.70514466 0.793051,-0.00969462 z M 1.0517218,-2.3170686 c 0.5192553,-0.8452369 1.9249238,-3.2145662 1.920025,-3.7853113 l -0.00361,3.7847441 z m 0,0"
       style="fill:#000000;fill-opacity:1;fill-rule:nonzero;stroke:none"
       aria-label="4"
       transform="matrix(0.4488,-1.2554667,1.2554667,0.4488,704.58933,138.31733)" />
    <path
       id="path40"
       d="m 4.5474609,-3.2466328 c 0,-0.7851563 -0.035156,-1.7109375 -0.4570312,-2.5195313 -0.3984375,-0.75 -1.0898438,-0.984375 -1.59375,-0.984375 -0.5976563,0 -1.2890625,0.2695313 -1.69921876,1.1484375 -0.328125,0.7265625 -0.375,1.5585938 -0.375,2.3554688 0,0.7851562 0.0351563,1.5117187 0.33984375,2.2382812 0.39843751,0.96093754 1.14843751,1.23046879 1.72265621,1.23046879 0.7265625,0 1.3476563,-0.41015625 1.6640625,-1.1015625 C 4.4537109,-1.5239766 4.5474609,-2.1802266 4.5474609,-3.2466328 Z m -2.0507812,2.85937499 c -0.5273438,0 -0.9375,-0.375 -1.1367188,-1.10156249 -0.1523437,-0.5625 -0.1640625,-1.1015625 -0.1640625,-1.875 0,-0.6328125 0,-1.2304688 0.1640625,-1.78125 0.070312,-0.1875 0.3164063,-0.9960938 1.125,-0.9960938 0.7734375,0 1.03125,0.75 1.1015625,0.9257813 0.1875,0.5625 0.1875,1.2304687 0.1875,1.8515625 0,0.65625 0,1.2773437 -0.1757812,1.9101562 -0.2578125,0.90234379 -0.7851563,1.06640629 -1.1015625,1.06640629 z m 0,0"
       style="fill:#000000;fill-opacity:1;fill-rule:nonzero;stroke:none"
       aria-label="0"
       transform="matrix(0,-1.3333333,1.3333333,0,706.864,126.2)" />
    <path
       id="path41"
       d="M 1.7920234,-0.83257031 H 0.95999219 V -5.390625e-4 H 1.7920234 Z m 0,0"
       style="fill:#000000;fill-opacity:1;fill-rule:nonzero;stroke:none"
       aria-label="."
       transform="matrix(0,-1.3333333,1.3333333,0,706.864,119.55733)" />
    <path
       id="path42"
       d="m 4.1373281,-6.5513203 c -0.515625,-0.1992188 -0.9140625,-0.1992188 -1.0546875,-0.1992188 -1.40625,0 -2.66015623,1.40625 -2.66015623,3.5390625 0,2.82421879 1.23046873,3.43359379 2.07421873,3.43359379 0.5976563,0 1.03125,-0.234375 1.4179688,-0.6796875 0.4453125,-0.50390625 0.6328125,-0.97265629 0.6328125,-1.75781249 0,-1.2773438 -0.65625,-2.390625 -1.6054688,-2.390625 -0.3164062,0 -1.078125,0.082031 -1.6875,0.8320312 0.1289063,-1.6054687 0.9140625,-2.4023437 1.8398438,-2.4023437 0.375,0 0.6914062,0.070312 1.0429687,0.2109375 z m -2.8710937,4.3710937 c 0,-0.140625 0,-0.1640625 0.011719,-0.28125 0,-0.7382812 0.4453125,-1.5351562 1.2773438,-1.5351562 0.46875,0 0.75,0.2460937 0.9492187,0.6210937 0.2109375,0.3632813 0.234375,0.7148438 0.234375,1.1601563 0,0.3398437 0,0.796875 -0.2460937,1.2070312 -0.1640625,0.28125004 -0.421875,0.62109379 -0.9960938,0.62109379 -1.0546875,0 -1.1953125,-1.46484379 -1.230469,-1.79296879 z m 0,0"
       style="fill:#000000;fill-opacity:1;fill-rule:nonzero;stroke:none"
       aria-label="6"
       transform="matrix(0,-1.3333333,1.3333333,0,706.864,115.868)" />
    <path
       id="path43"
       d="m 2.3076719,-5.8247578 c 0.1171875,0 0.2460937,-0.011719 0.3632812,-0.011719 h 1.2070313 c -1.4765625,1.6171875 -2.3671875,3.609375 -2.3671875,5.94140629 h 0.84375 c 0,-2.98828129 1.4179687,-5.12109379 2.1914062,-5.98828129 v -0.65625 H 0.42095312 v 0.7148438 z m 0,0"
       style="fill:#000000;fill-opacity:1;fill-rule:nonzero;stroke:none"
       aria-label="7"
       transform="matrix(0,-1.3333333,1.3333333,0,706.864,109.22533)" />
    <path
       id="path44"
       d="m 4.5469375,-3.2466328 c 0,-0.7851563 -0.035156,-1.7109375 -0.4570313,-2.5195313 -0.3984375,-0.75 -1.0898437,-0.984375 -1.59375,-0.984375 -0.5976562,0 -1.2890625,0.2695313 -1.6992187,1.1484375 -0.328125,0.7265625 -0.375,1.5585938 -0.375,2.3554688 0,0.7851562 0.0351563,1.5117187 0.33984375,2.2382812 0.39843745,0.96093754 1.14843745,1.23046879 1.72265625,1.23046879 0.7265625,0 1.3476562,-0.41015625 1.6640625,-1.1015625 C 4.4531875,-1.5239766 4.5469375,-2.1802266 4.5469375,-3.2466328 Z m -2.0507813,2.85937499 c -0.5273437,0 -0.9375,-0.375 -1.1367187,-1.10156249 -0.1523438,-0.5625 -0.1640625,-1.1015625 -0.1640625,-1.875 0,-0.6328125 0,-1.2304688 0.1640625,-1.78125 0.070312,-0.1875 0.3164062,-0.9960938 1.125,-0.9960938 0.7734375,0 1.03125,0.75 1.1015625,0.9257813 0.1875,0.5625 0.1875,1.2304687 0.1875,1.8515625 0,0.65625 0,1.2773437 -0.1757813,1.9101562 -0.2578125,0.90234379 -0.7851562,1.06640629 -1.1015625,1.06640629 z m 0,0"
       style="fill:#000000;fill-opacity:1;fill-rule:nonzero;stroke:none"
       aria-label="0"
       transform="matrix(0,-1.3333333,1.3333333,0,706.864,96.781333)" />
    <path
       id="path45"
       d="m 1.7915481,-0.83155705 -0.83238411,0.00395 0.00395,0.83238407 L 1.7954981,8.26794e-4 Z m 0,0"
       style="fill:#000000;fill-opacity:1;fill-rule:nonzero;stroke:none"
       aria-label="."
       transform="matrix(0.04386667,-1.33256,1.33256,0.04386667,706.81467,90.138667)" />
    <path
       id="path46"
       d="M 3.180237,-3.5401165 C 4.0746154,-3.8215598 4.4130041,-4.4863913 4.4136455,-5.0128462 4.4184179,-5.9321813 3.5600769,-6.7508248 2.4925673,-6.7599518 1.368948,-6.75219 0.56261508,-5.9342703 0.55784266,-5.0149353 0.55720123,-4.4884804 0.90466395,-3.8220306 1.7860903,-3.5365975 1.063419,-3.2945988 0.41070384,-2.6575426 0.41148649,-1.8010728 0.41249275,-0.69989743 1.3382773,0.22083229 2.4877183,0.21753692 3.674203,0.21533019 4.5511335,-0.73398696 4.5490386,-1.7981188 4.5493446,-2.6916321 3.8517123,-3.3016368 3.180237,-3.5401165 Z M 2.4918729,-3.834706 C 1.7207123,-3.8351238 1.2454535,-4.3162437 1.243694,-5.013317 c 0.005,-0.6746294 0.5051821,-1.1678657 1.239299,-1.1685366 0.7823826,-0.00296 1.2341088,0.5219591 1.2302014,1.1595449 6.709e-4,0.734117 -0.5096485,1.1936874 -1.2213215,1.1876027 z m 0.00651,3.43710103 c -0.6970734,0.001759 -1.2688633,-0.47478216 -1.2674687,-1.40533913 0.00128,-1.0529099 0.7126205,-1.4138837 1.2502974,-1.41662 0.5747205,-0.00165 1.2564408,0.3928507 1.2596244,1.4199389 -0.00248,0.96760062 -0.6048674,1.40592761 -1.2424531,1.40202023 z m 0,0"
       style="fill:#000000;fill-opacity:1;fill-rule:nonzero;stroke:none"
       aria-label="8"
       transform="matrix(0.38428,-1.2766933,1.2766933,0.38428,706.75067,86.389333)" />
    <path
       id="path47"
       d="m 1.519903,-5.8901401 2.6347967,0.00158 -0.00566,-0.647079 -3.34733807,-0.00638 -1.1461e-4,3.675623 0.65395378,0.00383 c 0.1799597,-0.3908273 0.5356821,-0.7787347 1.1146828,-0.7784924 0.4781911,9.116e-4 1.0176475,0.4060346 1.0188057,1.6062579 -0.00401,1.65255804 -1.2274758,1.64160945 -1.3119197,1.64489489 -0.6634438,0.00304 -1.2641037,-0.38669091 -1.5646473,-0.92146139 L 0.38229243,-0.76832136 C 0.79216299,-0.18250757 1.4910164,0.2229193 2.2974925,0.21756396 3.4813502,0.2137897 4.4680282,-0.76139361 4.4678433,-2.0202044 c 0.00669,-1.24932 -0.8513184,-2.2340515 -1.8757791,-2.2299733 -0.403238,0.00268 -0.7714327,0.1536188 -1.0803705,0.4063429 z m 0,0"
       style="fill:#000000;fill-opacity:1;fill-rule:nonzero;stroke:none"
       aria-label="5"
       transform="matrix(0.78214667,-1.0797733,1.0797733,0.78214667,708.69467,79.974667)" />
    <path
       id="path48"
       d="m 4.5458628,-3.2455627 c 0.00226,-0.7893726 -0.03649,-1.7157906 -0.4604441,-2.522914 -0.3941983,-0.7478825 -1.0802381,-0.9875156 -1.5879455,-0.9828816 -0.5929509,0.00108 -1.2891669,0.2765972 -1.69150925,1.155644 -0.33593344,0.7158635 -0.38255945,1.5646125 -0.38482253,2.3539852 -0.002263,0.7893726 0.0287122,1.5156833 0.34503826,2.2377664 0.39829042,0.95911441 1.14739212,1.23198585 1.71809382,1.22353077 0.7263784,0.006084 1.344519,-0.40640676 1.658271,-1.09258202 C 4.4563642,-1.5221298 4.5515129,-2.1819638 4.5458628,-3.2455627 Z M 2.4979999,-0.38082181 C 1.9680433,-0.38355907 1.5633978,-0.76453284 1.35825,-1.4868192 1.2089961,-2.0424397 1.1931698,-2.5908922 1.1991862,-3.35433 c 0.00253,-0.6411349 0.00145,-1.2340858 0.1597965,-1.7865626 0.07378,-0.1854326 0.3168956,-0.9937753 1.1210785,-0.9989512 0.7745624,0.0097 1.0353333,0.7504165 1.0986662,0.9318925 0.1974379,0.5592384 0.1986572,1.2263082 0.1998088,1.8563185 -0.00622,0.6522595 -0.00138,1.2711453 -0.1818424,1.8903697 -0.2503513,0.90471072 -0.7799692,1.08727061 -1.0986939,1.08044129 z m 0,0"
       style="fill:#000000;fill-opacity:1;fill-rule:nonzero;stroke:none"
       aria-label="0"
       transform="matrix(1.2656267,-0.41930667,0.41930667,1.2656267,717.36533,71.088)" />
    <path
       id="path49"
       d="m 1.7980022,-0.83167892 -0.83339131,-0.003034 -0.003034,0.83339135 0.83339141,0.00303408 z m 0,0"
       style="fill:#000000;fill-opacity:1;fill-rule:nonzero;stroke:none"
       aria-label="."
       transform="matrix(1.3308667,-0.07984,0.07984,1.3308667,723.736,69.184)" />
    <path
       id="path50"
       d="M 0.91446875,-5.1197969 C 1.2074375,-5.8112031 1.8519688,-6.1744844 2.4613438,-6.1744844 c 0.515625,0 1.0078125,0.2929688 1.0078125,0.9375 0,0.609375 -0.4101563,1.1953125 -1.0195313,1.3359375 -0.058594,0.011719 -0.082031,0.011719 -0.7851562,0.070312 v 0.609375 h 0.703125 c 1.078125,0 1.3007812,0.9257813 1.3007812,1.4179688 0,0.7734375 -0.4570312,1.41796873 -1.2304687,1.41796873 -0.6796875,0 -1.47656255,-0.3515625 -1.9101563,-1.03125003 l -0.10546875,0.59765628 c 0.72656255,0.9375 1.64062505,1.04296875 2.03906255,1.04296875 1.21875,0 2.0859375,-0.97265625 2.0859375,-2.01562503 0,-0.9023437 -0.6914063,-1.5234375 -1.3710938,-1.734375 0.7617188,-0.4101562 1.1132813,-1.0898437 1.1132813,-1.7109375 0,-0.8554687 -0.8320313,-1.5117187 -1.8164063,-1.5117187 -0.7734375,0 -1.5,0.3984375 -1.91015625,1.0898437 z m 0,0"
       style="fill:#000000;fill-opacity:1;fill-rule:nonzero;stroke:none"
       aria-label="3"
       transform="matrix(1.3333333,0,0,1.3333333,727.42133,69.037333)" />
    <path
       id="path51"
       d="m 1.7345404,-1.8747806 -1.23461898,1.24283169 0.005926,0.63379114 3.96951008,5.8951e-4 0.00121,-0.70471868 -1.8085754,8.21e-6 c -0.1177063,-0.0041 -0.2354126,-0.0082 -0.3640541,1.5353e-4 L 1.2234728,-0.70242406 C 1.534216,-0.9809716 2.3080362,-1.7241192 2.6055659,-2.0252966 2.7820485,-2.2011733 3.2832474,-2.621273 3.4838788,-2.7869739 3.9367801,-3.2274251 4.4779226,-3.7558147 4.4809563,-4.6133237 4.4774579,-5.7522645 3.660648,-6.7561811 2.3572222,-6.7537451 c -1.1389408,0.0035 -1.69921895,0.7797546 -1.93766517,1.6290632 0.11740331,0.1802798 0.16797927,0.2357155 0.19288753,0.2575859 0.0249083,0.021871 0.11588441,0.1568905 0.21931468,0.3028458 0.20791886,-0.7768621 0.47431116,-1.5575215 1.39029356,-1.5582851 0.927677,-0.00152 1.4346526,0.7524022 1.4263028,1.5280484 0.0079,0.8450548 -0.5535926,1.421742 -1.1494113,2.0124023 z m 0,0"
       style="fill:#000000;fill-opacity:1;fill-rule:nonzero;stroke:none"
       aria-label="2"
       transform="matrix(1.3304667,0.0864,-0.0864,1.3304667,734.06933,68.864)" />
    <path
       id="path52"
       d="M 4.5526728,-3.2473402 C 4.5436353,-4.0306672 4.5156648,-4.9656226 4.092558,-5.7715258 3.6961995,-6.5083018 2.9948508,-6.7495475 2.4951541,-6.7469385 1.896456,-6.7537078 1.2036218,-6.4697249 0.79668027,-5.600941 c -0.3343416,0.7175023 -0.37202541,1.5546725 -0.36455095,2.3544998 -0.007463,0.7817639 0.0227642,1.5171532 0.32915289,2.2370823 C 1.1612898,-0.04748483 1.9180448,0.22398189 2.4837425,0.22762512 3.2160057,0.23039868 3.8298114,-0.18593291 4.1535583,-0.87946634 4.4561158,-1.5250621 4.5516386,-2.1819459 4.5526728,-3.2473402 Z M 2.4995435,-0.37854161 C 1.9668463,-0.37905872 1.5526008,-0.75126627 1.3558083,-1.4857859 1.2093862,-2.0490508 1.2024347,-2.5907796 1.2008658,-3.365075 c -0.0066,-0.6332617 1.646e-4,-1.2319598 0.1597786,-1.7745583 0.068258,-0.1933138 0.3114129,-1.0026956 1.1187087,-1.0011384 0.7742954,-0.00157 1.0355258,0.7557032 1.1114281,0.9210523 0.1794226,0.5663911 0.1829012,1.2326533 0.1820374,1.8568833 -0.00399,0.6572305 -0.00485,1.2814606 -0.1722831,1.9065603 -0.2525337,0.90838336 -0.7843612,1.07443179 -1.100992,1.07773419 z m 0,0"
       style="fill:#000000;fill-opacity:1;fill-rule:nonzero;stroke:none"
       aria-label="0"
       transform="matrix(1.02744,0.84962667,-0.84962667,1.02744,746.204,71.484)" />
    <path
       id="path53"
       d="m 1.7947788,-0.83352698 -0.8228659,0.001343 -0.005484,0.83239094268 0.8228659,-0.001343353 z m 0,0"
       style="fill:#000000;fill-opacity:1;fill-rule:nonzero;stroke:none"
       aria-label="."
       transform="matrix(0.77676,1.0836133,-1.0836133,0.77676,751.20267,75.866667)" />
    <path
       id="path54"
       d="m 3.7144867,-1.7025458 0.979369,-0.00507 -0.00902,-0.6049234 -0.9793691,0.00507 -3.82e-5,-4.2356318 -0.9011596,-0.00291 -2.53340311,4.2411669 0.00902,0.6049234 2.64452991,-0.00106 -0.0055,1.70219046 0.7900711,-0.001563533 z M 1.0499774,-2.3105581 C 1.55885,-3.1579614 2.982033,-5.5263068 2.9824819,-6.0900503 l -0.00399,3.7829768 z m 0,0"
       style="fill:#000000;fill-opacity:1;fill-rule:nonzero;stroke:none"
       aria-label="4"
       transform="matrix(0.47217333,1.2468667,-1.2468667,0.47217333,753.53733,78.801333)" />
    <path
       id="path55"
       d="m 2.9789717,-6.7524788 -0.1991504,-0.00557 c -0.5917296,0.6165272 -1.424787,0.6401036 -1.89435997,0.6621309 l 0.007361,0.5746776 C 1.2214909,-5.5354927 1.7024506,-5.5454773 2.188985,-5.7546124 l 0.00735,5.18217335 -1.24274507,3.8441e-4 -0.004353,0.57434966 L 4.2202691,6.7533889e-5 4.2246226,-0.57428212 2.9818775,-0.57389771 Z m 0,0"
       style="fill:#000000;fill-opacity:1;fill-rule:nonzero;stroke:none"
       aria-label="1"
       transform="matrix(0.03730667,1.3327467,-1.3327467,0.03730667,755.89733,85.074667)" />
    <path
       id="path56"
       d="m 0.20354,0.35234 c 0.11381,0.10289 0.27578,0.2813 0.33356,0.3893 0.05776,0.10798 0.0989,0.28735 0.08279,0.38914 -0.01611,0.10178 -0.11066,0.25965 -0.19898,0.3445 -0.0883,0.08485 -0.29747,0.2045 -0.4375,0.2672 -0.14006,0.06268 -0.41316,0.141 -0.5719,0.18466 -0.15873,0.04364 -0.43084,0.0939 -0.57221,0.12996 -0.1414,0.03605 -0.35157,0.08502 -0.4468,0.12993 -0.09521,0.0449 -0.20419,0.12416 -0.23962,0.19374 -0.03543,0.06958 -0.03549,0.20428 -0.01586,0.30773 0.01964,0.10346 0.10353,0.30231 0.15746,0.43787 0.05392,0.13556 0.17322,0.38515 0.2312,0.53923 0.05797,0.15407 0.15518,0.42109 0.18677,0.57123 0.03158,0.15015 0.05765,0.3897 0.04091,0.51103 -0.01674,0.12133 -0.08878,0.29065 -0.16164,0.3635 C -1.48112,5.1842 -1.65044,5.25624 -1.77177,5.27298 -1.8931,5.28972 -2.13264,5.26366 -2.28279,5.23207 -2.43295,5.20049 -2.69995,5.10329 -2.85403,5.0453 -3.0081,4.98732 -3.2577,4.86803 -3.39325,4.8141 -3.52881,4.7602 -3.72768,4.67628 -3.83112,4.65665 -3.93457,4.63701 -4.06927,4.63707 -4.13885,4.6725 -4.20844,4.70793 -4.28769,4.81691 -4.3326,4.91212 -4.3775,5.00735 -4.42647,5.21754 -4.46254,5.35892 -4.4986,5.50029 -4.54884,5.7724 -4.5925,5.93114 -4.63614,6.08987 -4.71446,6.36298 -4.77716,6.50304 -4.83984,6.6431 -4.95949,6.85225 -5.04434,6.94057 -5.1292,7.02887 -5.28708,7.12341 -5.38885,7.13953 -5.49063,7.15564 -5.67,7.1145 -5.77798,7.05673 -5.88599,6.99896 -6.06439,6.83699 -6.16728,6.72318 -6.27017,6.60936 -6.42908,6.37378 -6.51964,6.23631 -6.6102,6.09885 -6.74208,5.8556 -6.82005,5.73232 -6.89803,5.60901 -7.00952,5.42426 -7.08165,5.34756 -7.15378,5.27087 -7.26285,5.19171 -7.33998,5.1795 -7.41711,5.1673 -7.5453,5.20888 -7.6376,5.25952 -7.7299,5.31018 -7.89304,5.45143 -8.00531,5.54462 -8.11757,5.63779 -8.31816,5.82838 -8.44678,5.93114 -8.57538,6.03389 -8.79927,6.2088 -8.93231,6.28525 -9.06534,6.3617 -9.28511,6.46059 -9.40569,6.48215 -9.52625,6.50371 -9.70955,6.48746 -9.80135,6.44067 -9.89316,6.3939 -10.01402,6.2552 -10.06744,6.14499 c -0.05342,-0.11022 -0.10265,-0.34616 -0.11899,-0.49872 -0.01634,-0.15257 -0.0064,-0.43651 0.0012,-0.60097 0.0075,-0.16446 0.04381,-0.43875 0.05319,-0.58435 0.0094,-0.1456 0.02777,-0.36067 0.0145,-0.46512 -0.01326,-0.10446 -0.05501,-0.23251 -0.11022,-0.28772 -0.05519,-0.05519 -0.18326,-0.09693 -0.2877,-0.11021 -0.10446,-0.01326 -0.31952,0.00513 -0.46512,0.01451 -0.14561,0.00937 -0.41989,0.04566 -0.58435,0.05319 -0.16446,0.00754 -0.4484,0.01752 -0.60097,0.00118 -0.15257,-0.01634 -0.3885,-0.06555 -0.49872,-0.11898 -0.11021,-0.05342 -0.24891,-0.1743 -0.29568,-0.26609 -0.04679,-0.09181 -0.06304,-0.27511 -0.04148,-0.39566 0.02157,-0.12058 0.12044,-0.34035 0.1969,-0.47338 0.07645,-0.13304 0.25136,-0.35693 0.35411,-0.48553 0.10276,-0.12862 0.29336,-0.32921 0.38653,-0.44147 0.09317,-0.11227 0.23443,-0.2754 0.28508,-0.3677 0.05065,-0.09232 0.09223,-0.22049 0.08003,-0.29763 C -11.71135,0.7432 -11.79051,0.63414 -11.8672,0.56201 -11.9439,0.48988 -12.12865,0.37839 -12.25195,0.30042 -12.37526,0.22244 -12.61848,0.09055 -12.75595,0 c -0.13748,-0.09055 -0.37305,-0.24945 -0.48686,-0.35234 -0.11382,-0.10289 -0.27581,-0.2813 -0.33356,-0.3893 -0.05777,-0.10798 -0.09891,-0.28735 -0.08279,-0.38914 0.01611,-0.10178 0.11065,-0.25965 0.19896,-0.3445 0.0883,-0.08485 0.29747,-0.2045 0.43753,-0.2672 0.14006,-0.06268 0.41316,-0.141 0.57189,-0.18466 0.15874,-0.04364 0.43084,-0.0939 0.57222,-0.12996 0.14138,-0.03605 0.35156,-0.08502 0.44678,-0.12993 0.09523,-0.0449 0.2042,-0.12416 0.23964,-0.19374 0.03543,-0.06958 0.03549,-0.20428 0.01586,-0.30773 -0.01964,-0.10346 -0.10355,-0.30231 -0.15748,-0.43787 -0.05392,-0.13556 -0.1732,-0.38515 -0.23118,-0.53923 -0.05798,-0.15407 -0.15518,-0.42109 -0.18677,-0.57123 -0.0316,-0.15015 -0.05765,-0.3897 -0.04091,-0.51103 0.01674,-0.12133 0.08878,-0.29065 0.16162,-0.3635 0.07285,-0.07284 0.24218,-0.14488 0.3635,-0.16162 0.12132,-0.01674 0.36088,0.00932 0.51103,0.04091 0.15015,0.03158 0.41716,0.12878 0.57123,0.18677 0.15407,0.05798 0.40367,0.17727 0.53923,0.2312 0.13556,0.0539 0.33441,0.13782 0.43786,0.15745 0.10345,0.01964 0.23815,0.01958 0.30773,-0.01585 0.06958,-0.03543 0.14885,-0.14441 0.19375,-0.23962 0.04491,-0.09523 0.09387,-0.30542 0.12993,-0.4468 0.03606,-0.14137 0.08632,-0.41348 0.12996,-0.57222 0.04366,-0.15873 0.12197,-0.43184 0.18466,-0.5719 0.0627,-0.14006 0.18233,-0.34921 0.2672,-0.43753 0.08486,-0.0883 0.24272,-0.18284 0.3445,-0.19896 0.10177,-0.01611 0.28114,0.02503 0.38914,0.0828 0.10799,0.05777 0.28641,0.21974 0.3893,0.33355 0.10288,0.11382 0.26178,0.3494 0.35234,0.48687 0.09056,0.13746 0.22246,0.38071 0.30043,0.50399 0.07797,0.12331 0.18946,0.30806 0.2616,0.38476 0.07213,0.07669 0.18118,0.15585 0.25831,0.16806 0.07714,0.0122 0.20533,-0.02938 0.29763,-0.08002 0.09231,-0.05066 0.25545,-0.19191 0.3677,-0.2851 0.11228,-0.09317 0.31287,-0.28376 0.44147,-0.38652 0.12862,-0.10275 0.35251,-0.27766 0.48554,-0.35411 0.13304,-0.07645 0.35281,-0.17534 0.47337,-0.1969 0.12057,-0.02156 0.30386,-0.00531 0.39567,0.04148 0.0918,0.04677 0.21267,0.18547 0.26609,0.29568 0.05342,0.11022 0.10264,0.34616 0.11899,0.49872 0.01634,0.15257 0.00636,0.43651 -0.00119,0.60097 -0.00754,0.16446 -0.04381,0.43875 -0.05318,0.58435 -0.00939,0.1456 -0.02779,0.36067 -0.01451,0.46512 0.01327,0.10446 0.05502,0.23251 0.11021,0.28772 0.05521,0.05519 0.18326,0.09693 0.28772,0.11021 0.10445,0.01326 0.31951,-0.00513 0.46512,-0.01451 0.1456,-0.00937 0.41989,-0.04566 0.58435,-0.05319 0.16444,-0.00754 0.4484,-0.01752 0.60095,-0.00118 0.15257,0.01634 0.38851,0.06555 0.49872,0.11898 0.11022,0.05342 0.24892,0.1743 0.2957,0.26609 0.04677,0.09181 0.06302,0.27511 0.04147,0.39566 -0.02156,0.12058 -0.12045,0.34035 -0.1969,0.47338 -0.07644,0.13304 -0.25137,0.35693 -0.35411,0.48553 -0.10275,0.12862 -0.29336,0.32921 -0.38653,0.44147 -0.09317,0.11227 -0.23442,0.2754 -0.28508,0.3677 -0.05065,0.09232 -0.09223,0.22049 -0.08002,0.29763 0.01221,0.07714 0.09136,0.1862 0.16806,0.25833 0.07669,0.07213 0.26145,0.18362 0.38474,0.26159 0.1233,0.07798 0.43408,0.25876 0.50401,0.30042 0.06993,0.04166 -0.06755,-0.04887 0,0 0.06754,0.04887 0.37303,0.24945 0.48685,0.35234 z M -4.8189,0 c 0,0.93929 -0.76144,1.70073 -1.70074,1.70073 -0.9393,0 -1.70073,-0.76144 -1.70073,-1.70073 0,-0.93929 0.76143,-1.70073 1.70073,-1.70073 0.9393,0 1.70074,0.76144 1.70074,1.70073 z"
       style="fill:#fff200;fill-opacity:1;fill-rule:evenodd;stroke:#fff200;stroke-width:0.3985;stroke-linecap:butt;stroke-linejoin:miter;stroke-miterlimit:10;stroke-dasharray:none;stroke-opacity:1"
       transform="matrix(1.3333333,0,0,-1.3333333,703.08533,110.612)"
       clip-path="url(#clipPath57)" />
    <path
       id="path58"
       d="m 13.24281,0.35234 c 0.11382,0.10289 0.27581,0.2813 0.33356,0.3893 0.05777,0.10798 0.09891,0.28735 0.08279,0.38914 -0.01611,0.10178 -0.11065,0.25965 -0.19896,0.3445 -0.0883,0.08485 -0.29747,0.2045 -0.43753,0.2672 -0.14006,0.06268 -0.41316,0.141 -0.57189,0.18466 -0.15874,0.04364 -0.43084,0.0939 -0.57222,0.12996 -0.14138,0.03605 -0.35156,0.08502 -0.44678,0.12993 -0.09523,0.0449 -0.2042,0.12416 -0.23964,0.19374 -0.03543,0.06958 -0.03549,0.20428 -0.01586,0.30773 0.01964,0.10346 0.10355,0.30231 0.15748,0.43787 0.05392,0.13556 0.1732,0.38515 0.23118,0.53923 0.05798,0.15407 0.15518,0.42109 0.18677,0.57123 0.0316,0.15015 0.05765,0.3897 0.04091,0.51103 C 11.77588,4.86919 11.70384,5.03851 11.631,5.11136 11.55815,5.1842 11.38882,5.25624 11.2675,5.27298 11.14618,5.28972 10.90662,5.26366 10.75647,5.23207 10.60632,5.20049 10.33931,5.10329 10.18524,5.0453 10.03117,4.98732 9.78157,4.86803 9.64601,4.8141 9.51045,4.7602 9.3116,4.67628 9.20815,4.65665 9.1047,4.63701 8.97,4.63707 8.90042,4.6725 8.83084,4.70793 8.75157,4.81691 8.70667,4.91212 8.66176,5.00735 8.6128,5.21754 8.57674,5.35892 8.54068,5.50029 8.49042,5.7724 8.44678,5.93114 8.40312,6.08987 8.32481,6.36298 8.26212,6.50304 8.19942,6.6431 8.07979,6.85225 7.99492,6.94057 7.91006,7.02887 7.7522,7.12341 7.65042,7.13953 7.54865,7.15564 7.36928,7.1145 7.26128,7.05673 7.15329,6.99896 6.97487,6.83699 6.87198,6.72318 6.7691,6.60936 6.6102,6.37378 6.51964,6.23631 6.42908,6.09885 6.29718,5.8556 6.21921,5.73232 6.14124,5.60901 6.02975,5.42426 5.95761,5.34756 5.88548,5.27087 5.77643,5.19171 5.6993,5.1795 5.62216,5.1673 5.49397,5.20888 5.40167,5.25952 5.30936,5.31018 5.14622,5.45143 5.03397,5.54462 4.92169,5.63779 4.7211,5.82838 4.5925,5.93114 4.46388,6.03389 4.23999,6.2088 4.10696,6.28525 3.97392,6.3617 3.75415,6.46059 3.63359,6.48215 3.51302,6.50371 3.32973,6.48746 3.23792,6.44067 3.14612,6.3939 3.02525,6.2552 2.97183,6.14499 2.91841,6.03477 2.86919,5.79883 2.85284,5.64627 2.8365,5.4937 2.84648,5.20976 2.85403,5.0453 2.86157,4.88084 2.89784,4.60655 2.90721,4.46095 2.9166,4.31535 2.935,4.10028 2.92172,3.99583 2.90845,3.89137 2.8667,3.76332 2.81151,3.70811 2.7563,3.65292 2.62825,3.61118 2.52379,3.5979 2.41934,3.58464 2.20428,3.60303 2.05867,3.61241 1.91307,3.62178 1.63878,3.65807 1.47432,3.6656 1.30988,3.67314 1.02592,3.68312 0.87337,3.66678 0.7208,3.65044 0.48486,3.60123 0.37465,3.5478 0.26443,3.49438 0.12573,3.3735 0.07895,3.28171 0.03218,3.1899 0.01593,3.0066 0.03748,2.88605 0.05904,2.76547 0.15793,2.5457 0.23438,2.41267 0.31082,2.27963 0.48575,2.05574 0.58849,1.92714 0.69124,1.79852 0.88185,1.59793 0.97502,1.48567 1.06819,1.3734 1.20944,1.21027 1.2601,1.11797 1.31075,1.02565 1.35233,0.89748 1.34012,0.82034 1.32791,0.7432 1.24876,0.63414 1.17206,0.56201 1.09537,0.48988 0.91061,0.37839 0.78732,0.30042 0.66402,0.22244 0.42078,0.09055 0.28331,0 0.14584,-0.09055 -0.08972,-0.24945 -0.20354,-0.35234 c -0.11381,-0.10289 -0.27578,-0.2813 -0.33356,-0.3893 -0.05776,-0.10798 -0.0989,-0.28735 -0.08279,-0.38914 0.01611,-0.10178 0.11066,-0.25965 0.19898,-0.3445 0.0883,-0.08485 0.29747,-0.2045 0.4375,-0.2672 0.14006,-0.06268 0.41316,-0.141 0.5719,-0.18466 C 0.74722,-1.97078 1.01933,-2.02104 1.1607,-2.0571 1.3021,-2.09315 1.51227,-2.14212 1.6075,-2.18703 1.70271,-2.23193 1.81169,-2.31119 1.84712,-2.38077 1.88255,-2.45035 1.88261,-2.58505 1.86298,-2.6885 1.84334,-2.79196 1.75945,-2.99081 1.70552,-3.12637 1.6516,-3.26193 1.5323,-3.51152 1.47432,-3.6656 1.41635,-3.81967 1.31914,-4.08669 1.28755,-4.23683 1.25597,-4.38698 1.2299,-4.62653 1.24664,-4.74786 c 0.01674,-0.12133 0.08878,-0.29065 0.16164,-0.3635 0.07284,-0.07284 0.24216,-0.14488 0.36349,-0.16162 0.12133,-0.01674 0.36087,0.00932 0.51102,0.04091 0.15016,0.03158 0.41716,0.12878 0.57124,0.18677 0.15407,0.05798 0.40367,0.17727 0.53922,0.2312 0.13556,0.0539 0.33443,0.13782 0.43787,0.15745 0.10345,0.01964 0.23815,0.01958 0.30773,-0.01585 0.06959,-0.03543 0.14884,-0.14441 0.19375,-0.23962 0.0449,-0.09523 0.09387,-0.30542 0.12994,-0.4468 0.03606,-0.14137 0.0863,-0.41348 0.12996,-0.57222 0.04364,-0.15873 0.12196,-0.43184 0.18466,-0.5719 0.06268,-0.14006 0.18233,-0.34921 0.26718,-0.43753 0.08486,-0.0883 0.24274,-0.18284 0.34451,-0.19896 0.10178,-0.01611 0.28115,0.02503 0.38913,0.0828 0.10801,0.05777 0.28641,0.21974 0.3893,0.33355 0.10289,0.11382 0.2618,0.3494 0.35236,0.48687 0.09056,0.13746 0.22244,0.38071 0.30041,0.50399 0.07798,0.12331 0.18947,0.30806 0.2616,0.38476 0.07213,0.07669 0.1812,0.15585 0.25833,0.16806 0.07713,0.0122 0.20532,-0.02938 0.29762,-0.08002 0.0923,-0.05066 0.25544,-0.19191 0.36771,-0.2851 0.11226,-0.09317 0.31285,-0.28376 0.44147,-0.38652 0.1286,-0.10275 0.35249,-0.27766 0.48553,-0.35411 0.13303,-0.07645 0.3528,-0.17534 0.47338,-0.1969 0.12056,-0.02156 0.30386,-0.00531 0.39566,0.04148 0.09181,0.04677 0.21267,0.18547 0.26609,0.29568 0.05342,0.11022 0.10265,0.34616 0.11899,0.49872 0.01634,0.15257 0.0064,0.43651 -0.0012,0.60097 -0.0075,0.16446 -0.04381,0.43875 -0.05319,0.58435 -0.0094,0.1456 -0.02777,0.36067 -0.0145,0.46512 0.01326,0.10446 0.05501,0.23251 0.11022,0.28772 0.05519,0.05519 0.18326,0.09693 0.2877,0.11021 0.10446,0.01326 0.31952,-0.00513 0.46512,-0.01451 0.14561,-0.00937 0.41989,-0.04566 0.58435,-0.05319 0.16446,-0.00754 0.4484,-0.01752 0.60097,-0.00118 0.15257,0.01634 0.3885,0.06555 0.49872,0.11898 0.11021,0.05342 0.24891,0.1743 0.29568,0.26609 0.04679,0.09181 0.06304,0.27511 0.04148,0.39566 -0.02157,0.12058 -0.12044,0.34035 -0.1969,0.47338 -0.07645,0.13304 -0.25136,0.35693 -0.35411,0.48553 -0.10276,0.12862 -0.29336,0.32921 -0.38653,0.44147 -0.09317,0.11227 -0.23443,0.2754 -0.28508,0.3677 -0.05065,0.09232 -0.09223,0.22049 -0.08003,0.29763 0.01221,0.07714 0.09137,0.1862 0.16806,0.25833 0.0767,0.07213 0.26145,0.18362 0.38475,0.26159 0.12331,0.07798 0.43409,0.25876 0.504,0.30042 0.06993,0.04166 -0.06753,-0.04887 0,0 0.06755,0.04887 0.37305,0.24945 0.48686,0.35234 z M 8.22037,0 c 0,0.93929 -0.76143,1.70073 -1.70073,1.70073 C 5.58034,1.70073 4.8189,0.93929 4.8189,0 c 0,-0.93929 0.76144,-1.70073 1.70074,-1.70073 0.9393,0 1.70073,0.76144 1.70073,1.70073 z"
       style="fill:#fff200;fill-opacity:1;fill-rule:evenodd;stroke:#fff200;stroke-width:0.3985;stroke-linecap:butt;stroke-linejoin:miter;stroke-miterlimit:10;stroke-dasharray:none;stroke-opacity:1"
       transform="matrix(1.3333333,0,0,-1.3333333,703.08533,110.612)"
       clip-path="url(#clipPath59)" />
    <path
       id="path60"
       d="m 2.8475078,-3.1993359 h 1.8164063 c 1.875,0 3,-0.796875 3,-2.5195313 0,-1.8046875 -1.171875,-2.578125 -3.0117188,-2.578125 H 1.6639141 c -0.4335938,0 -0.5742188,0.1289063 -0.5742188,0.5742188 v 7.14843746 c 0,0.43359375 0.1289063,0.5742187525 0.5742188,0.5742187525 h 0.609375 c 0.4570312,0 0.5742187,-0.1523437525 0.5742187,-0.5742187525 z m 1.4296875,-4.0664063 c 1.5703125,0 1.7226563,0.7148438 1.7226563,1.546875 0,0.8085938 -0.1289063,1.5703125 -1.734375,1.5703125 h -1.453125 v -3.1171875 z m 5.7890627,-1.03125 c -0.4335939,0 -0.5742189,0.1289063 -0.5742189,0.5742188 v 7.14843746 c 0,0.43359375 0.1289062,0.5742187525 0.5742189,0.5742187525 h 3.152344 c 2.917968,0 3.9375,-1.7460937125 3.9375,-4.0898437125 0,-0.9375 -0.164063,-2.0976563 -0.832032,-2.953125 -0.890625,-1.1132813 -2.332031,-1.2539063 -3.105468,-1.2539063 z m 1.148437,7.265625 v -6.234375 h 1.523438 c 2.589844,0 2.695312,1.8398438 2.695312,3.1757813 0,1.3476562 -0.128906,3.0585937 -2.683593,3.0585937 z m 9.533203,-2.5429687 h 2.765625 c 0.375,0 0.574219,-0.082031 0.574219,-0.5625 0,-0.4453125 -0.152344,-0.5625 -0.574219,-0.5625 h -2.765625 v -2.3554688 h 0.515625 c 0.890625,0 1.804688,0.035156 2.695313,0.035156 0.410156,0 0.679687,0 0.679687,-0.5742188 v -0.09375 c 0,-0.3867187 -0.08203,-0.5742187 -0.574218,-0.5742187 h -4.5 c -0.433594,0 -0.574219,0.1289062 -0.574219,0.5742187 v 7.11328126 c 0,0.43359375 0.128906,0.5742187525 0.574219,0.5742187525 h 0.609375 c 0.457031,0 0.574218,-0.1523437525 0.574218,-0.5742187525 z m 11.44629,-1.0429688 h 1.066406 c 0.140625,0 0.574219,0 0.574219,-0.421875 0,-0.4335937 -0.433594,-0.4335937 -0.574219,-0.4335937 h -1.066406 v -0.9960938 c 0,-0.375 -0.08203,-0.5742187 -0.574219,-0.5742187 h -0.363281 c -0.433594,0 -0.574219,0.1289062 -0.574219,0.5742187 v 0.9960938 h -0.28125 c -0.128906,0 -0.574219,0 -0.574219,0.4335937 0,0.421875 0.433594,0.421875 0.574219,0.421875 h 0.246094 v 3.0234375 c 0,1.20703126 0.421875,1.72265626 1.253906,1.72265626 0.105469,0 0.632812,0 1.253906,-0.1875 0.199219,-0.05859375 0.890625,-0.28125 0.890625,-0.50390625 0,-0.0351563 -0.02344,-0.1171875 -0.09375,-0.375 -0.05859,-0.23437501 -0.08203,-0.30468751 -0.1875,-0.30468751 -0.05859,0 -0.07031,0.011719 -0.140625,0.082031 -0.128906,0.09375 -0.457031,0.36328121 -0.960937,0.36328121 -0.28125,0 -0.46875,-0.21093751 -0.46875,-0.99609371 z m 8.416992,1.921875 c 0,-1.9570312 -0.949219,-2.9882812 -2.894532,-2.9882812 -2.003906,0 -2.917968,1.0664062 -2.917968,2.9882812 0,1.95703126 1.019531,2.82421876 2.894531,2.82421876 1.886719,0 2.917969,-0.85546875 2.917969,-2.82421876 z m -2.894532,1.89843751 c -1.300781,0 -1.300781,-1.07812501 -1.300781,-2.03906251 0,-0.9140625 0,-1.9804687 1.277344,-1.9804687 1.300781,0 1.300781,1.0546875 1.300781,1.9804687 0,0.9492188 0,2.03906251 -1.277344,2.03906251 z M 51.152195,-3.8204297 c 0.75,-0.1875 1.886719,-0.6328125 1.886719,-2.1210937 0,-2.3554688 -2.601562,-2.3554688 -3.128906,-2.3554688 h -2.871094 c -0.433594,0 -0.574219,0.1289063 -0.574219,0.5742188 v 7.14843746 c 0,0.43359375 0.128907,0.5742187525 0.574219,0.5742187525 h 0.574219 c 0.457031,0 0.574219,-0.1523437525 0.574219,-0.5742187525 V -3.7149609 h 1.324218 l 1.957032,3.43359371 c 0.164062,0.2812500025 0.304687,0.2812500025 0.5625,0.2812500025 h 0.703125 c 0.246093,0 0.445312,0 0.445312,-0.3632812525 z m -2.964843,-0.7617187 v -2.6835938 h 1.546875 c 1.394531,0 1.640625,0.5507813 1.640625,1.3359375 0,0.703125 -0.164063,1.3476563 -1.640625,1.3476563 z m 0,0"
       style="fill:#ffffff;fill-opacity:1;fill-rule:nonzero;stroke:none"
       aria-label="PDFtoR"
       transform="matrix(1.3333333,0,0,1.3333333,667.23067,172.84)" />
    <path
       id="path61"
       d="M 13.979006,-7.2835062 H 9.0477562 v 1.5375 h 3.0468748 v 3.8625 c -0.965625,0.271875 -1.959375,0.46875 -2.9437498,0.46875 -3.478125,0 -5.53125,-3.7125 -5.53125,-7.2375 0,-3.4968748 2.15625,-7.1624998 5.53125,-7.1624998 1.9031248,0 2.9718748,0.6 4.2843748,1.584375 l 0.31875,-1.978125 c -1.63125,-0.84375 -2.64375,-1.190625 -4.5093748,-1.190625 -4.809375,0 -7.70625,4.359375 -7.70625,8.8218748 0,4.265625 2.925,8.77499995 7.55625,8.77499995 1.7343748,0 3.3468748,-0.440625 4.8843748,-1.20937495 z m 11.254688,1.85625 c 0,-0.815625 -0.04687,-2.409375 -0.84375,-3.721875 -0.871875,-1.4062498 -2.278125,-1.8093748 -3.346875,-1.8093748 -2.578125,0 -4.7625,2.4281248 -4.7625,5.5781248 0,3.075 2.259375,5.57812495 5.109375,5.57812495 1.115625,0 2.475,-0.31875 3.721875,-1.20937495 0,-0.103125 -0.05625,-0.646875 -0.075,-0.675 0,-0.046875 -0.075,-0.815625 -0.075,-0.91875 -1.190625,0.965625 -2.559375,1.29375 -3.54375,1.29375 -1.59375,0 -3.3,-1.340625 -3.375,-4.115625 z m -6.99375,-1.359375 c 0.328125,-1.36875 1.415625,-2.653125 2.803125,-2.653125 0.375,0 2.109375,0.046875 2.55,2.653125 z m 11.800781,-2.4375 h 3.215625 v -1.4343748 h -3.215625 v -3.046875 h -1.7625 v 3.046875 H 26.31885 v 1.4343748 h 1.9125 v 6.271875 c 0,1.415625 0.31875,3.14999995 1.95,3.14999995 1.246875,0 2.38125,-0.346875 3.478125,-0.91875 L 33.25635,-2.1835062 c -0.590625,0.525 -1.3125,0.825 -2.08125,0.825 -1.0875,0 -1.134375,-1.3875 -1.134375,-2.015625 z m 8.41875,0 H 41.6751 v -1.4343748 h -3.215625 v -3.046875 h -1.7625 v 3.046875 H 34.7376 v 1.4343748 h 1.9125 v 6.271875 c 0,1.415625 0.31875,3.14999995 1.95,3.14999995 1.246875,0 2.38125,-0.346875 3.478125,-0.91875 L 41.6751,-2.1835062 c -0.590625,0.525 -1.3125,0.825 -2.08125,0.825 -1.0875,0 -1.134375,-1.3875 -1.134375,-2.015625 z m 8.069531,-7.0874998 h -2.090625 v 2.08125 h 2.090625 z m -0.13125,5.653125 H 44.569631 V 8.6875e-4 h 1.828125 z m 11.988281,3.4218748 c 0,-1.565625 -0.365625,-3.6187498 -3.16875,-3.6187498 -1.584375,0 -2.625,0.815625 -3.31875,1.6593748 V -10.733506 H 50.089162 V 8.6875e-4 h 1.884375 V -5.9991312 c 0,-1.55625 0.590625,-3.346875 2.278125,-3.346875 2.184375,0 2.25,1.4625 2.25,2.30625 V 8.6875e-4 h 1.884375 z m 12.892969,-3.6187498 c -1.415625,0.02812 -2.634375,0.3 -3.61875,0.76875 -0.825,-0.646875 -1.66875,-0.76875 -2.23125,-0.76875 -2.15625,0 -3.796875,1.7812498 -3.796875,3.8624998 0,1.340625 0.740625,2.3625 0.796875,2.409375 -0.45,0.61875 -0.69375,1.284375 -0.69375,2.034375 0,0.8625 0.346875,1.48125 0.61875,1.82812495 -1.29375,0.796875 -1.4625,2.00625005 -1.4625,2.48437505 0,1.809375 2.25,3.290625 5.15625,3.290625 2.925,0 5.175,-1.48125 5.175,-3.31875 0,-3.421875 -3.7875,-3.440625 -4.828125,-3.440625 h -2.00625 c -0.375,0 -1.36875,0 -1.36875,-1.265625 0,-0.496875 0.225,-0.825 0.253125,-0.84375 0.365625,0.271875 1.134375,0.69375 2.15625,0.69375 2.053125,0 3.759375,-1.734375 3.759375,-3.871875 0,-1.190625 -0.54375,-2.053125 -0.759375,-2.353125 h 0.06562 c 0.075,0 1.115625,-0.075 1.490625,-0.075 0.796875,0 0.871875,0.028125 1.565625,0.103125 z m -5.85,6.3656248 c -0.84375,0 -2.034375,-0.515625 -2.034375,-2.503125 0,-2.15625 1.359375,-2.503125 2.00625,-2.503125 0.84375,0 2.034375,0.525 2.034375,2.503125 0,2.15625 -1.36875,2.503125 -2.00625,2.503125 z m 0.9375,4.59374995 c 0.6,0 3.103125,0 3.103125,1.67812505 0,1.06875 -1.5375,1.9125 -3.403125,1.9125 -1.884375,0 -3.421875,-0.815625 -3.421875,-1.93125 0,-0.121875 0,-1.65937505 1.715625,-1.65937505 z M 89.773537,-17.202256 h -1.8375 v 7.5843748 c -0.76875,-0.6468748 -2.034375,-1.2374998 -3.421875,-1.2374998 -2.25,0 -4.040625,2.4562498 -4.040625,5.5312498 0,3.065625 1.7625,5.52187495 3.965625,5.52187495 1.715625,0 2.85,-0.91875 3.45,-1.43437495 V 8.6875e-4 h 1.884375 z m -1.884375,13.8843748 c 0,0.346875 0,0.7125 -0.76875,1.3875 -0.496875,0.421875 -1.0875,0.61875 -1.659375,0.61875 -1.340625,0 -3.103125,-0.99375 -3.103125,-3.99375 0,-3.121875 1.9875,-4.040625 3.346875,-4.040625 0.91875,0 1.659375,0.45 2.184375,1.190625 z m 13.082808,-3.69375 c 0,-2.334375 -1.65937,-3.9468748 -3.89062,-3.9468748 -1.0875,0 -2.278125,0.20625 -3.646875,0.9937498 l 0.15,1.640625 c 0.61875,-0.45 1.6875,-1.171875 3.46875,-1.171875 1.265625,0 2.034375,0.965625 2.034375,2.503125 v 0.946875 c -3.965625,0.121875 -6.440625,1.265625 -6.440625,3.225 0,1.0125 0.61875,3.01874995 2.671875,3.01874995 0.375,0 2.38125,-0.046875 3.815625,-1.115625 v 0.91875 h 1.837495 z m -1.88437,3.740625 c 0,0.45 0,1.040625 -0.740625,1.490625 -0.646875,0.421875 -1.4625,0.46875 -1.809375,0.46875 -1.2375,0 -2.08125,-0.69375 -2.08125,-1.565625 0,-1.734375 3.8625,-1.903125 4.63125,-1.93125 z m 7.88437,-5.953125 h 3.21563 v -1.4343748 h -3.21563 v -3.046875 h -1.7625 v 3.046875 h -1.95937 v 1.4343748 h 1.9125 v 6.271875 c 0,1.415625 0.31875,3.14999995 1.95,3.14999995 1.24687,0 2.38125,-0.346875 3.47812,-0.91875 L 110.1876,-2.1835062 c -0.59063,0.525 -1.3125,0.825 -2.08125,0.825 -1.0875,0 -1.13438,-1.3875 -1.13438,-2.015625 z m 13.59375,2.2125 c 0,-2.334375 -1.65937,-3.9468748 -3.89062,-3.9468748 -1.0875,0 -2.27813,0.20625 -3.64688,0.9937498 l 0.15,1.640625 c 0.61875,-0.45 1.6875,-1.171875 3.46875,-1.171875 1.26563,0 2.03438,0.965625 2.03438,2.503125 v 0.946875 c -3.96563,0.121875 -6.44063,1.265625 -6.44063,3.225 0,1.0125 0.61875,3.01874995 2.67188,3.01874995 0.375,0 2.38125,-0.046875 3.81562,-1.115625 v 0.91875 h 1.8375 z m -1.88437,3.740625 c 0,0.45 0,1.040625 -0.74063,1.490625 -0.64687,0.421875 -1.4625,0.46875 -1.80937,0.46875 -1.2375,0 -2.08125,-0.69375 -2.08125,-1.565625 0,-1.734375 3.8625,-1.903125 4.63125,-1.93125 z m 22.48359,-2.034375 c 0,-3.16875 -2.3625,-5.6531248 -5.1375,-5.6531248 -2.85,0 -5.15625,2.5593748 -5.15625,5.6531248 0,3.15 2.38125,5.50312495 5.1375,5.50312495 2.82188,0 5.15625,-2.42812495 5.15625,-5.50312495 z m -5.1375,3.946875 c -1.75312,0 -3.27187,-1.44375 -3.27187,-4.14375 0,-2.878125 1.7625,-3.9375 3.25312,-3.9375 1.6125,0 3.27188,1.1625 3.27188,3.9375 0,2.803125 -1.6125,4.14375 -3.25313,4.14375 z m 15.96797,-9.2999998 h -1.88437 v 6.8437498 c 0,1.828125 -1.33125,2.578125 -2.74688,2.578125 -1.64062,0 -1.78125,-0.54375 -1.78125,-1.565625 v -7.8562498 h -1.88437 v 7.9781248 c 0,1.94062495 0.66562,2.87812495 2.37187,2.87812495 0.84375,0 2.75625,-0.196875 4.09688,-1.43437495 V 8.6875e-4 h 1.82812 z m 6.00469,1.4343748 h 3.21562 v -1.4343748 h -3.21562 v -3.046875 h -1.7625 v 3.046875 h -1.95938 v 1.4343748 h 1.9125 v 6.271875 c 0,1.415625 0.31875,3.14999995 1.95,3.14999995 1.24688,0 2.38125,-0.346875 3.47813,-0.91875 l -0.40313,-1.46249995 c -0.59062,0.525 -1.3125,0.825 -2.08125,0.825 -1.0875,0 -1.13437,-1.3875 -1.13437,-2.015625 z m 22.99219,3.91875 c 0,-3.16875 -2.3625,-5.6531248 -5.1375,-5.6531248 -2.85,0 -5.15625,2.5593748 -5.15625,5.6531248 0,3.15 2.38125,5.50312495 5.1375,5.50312495 2.82187,0 5.15625,-2.42812495 5.15625,-5.50312495 z m -5.1375,3.946875 c -1.75313,0 -3.27188,-1.44375 -3.27188,-4.14375 0,-2.878125 1.7625,-3.9375 3.25313,-3.9375 1.6125,0 3.27187,1.1625 3.27187,3.9375 0,2.803125 -1.6125,4.14375 -3.25312,4.14375 z m 9.99375,-7.865625 h 2.50312 v -1.4343748 h -2.55 v -3.16875 c 0,-1.7625 1.34063,-2.0625 2.10938,-2.0625 0.24375,0 0.9375,0 1.82812,0.328125 v -1.640625 c -0.57187,-0.121875 -1.26562,-0.196875 -1.80937,-0.196875 -2.30625,0 -3.90938,1.884375 -3.90938,4.340625 v 2.4 h -1.71562 v 1.4343748 h 1.71562 V 8.6875e-4 h 1.82813 z M 23.496975,22.725869 c 2.971875,0 5.4,-2.30625 5.4,-5.034375 0,-2.671875 -2.325,-5.00625 -5.55,-5.00625 H 17.54385 v 17.203125 h 2.08125 v -7.1625 z m -0.69375,-8.653125 c 2.878125,0 4.134375,1.809375 4.134375,3.61875 0,1.6875 -1.1625,3.6 -4.134375,3.6 h -3.225 v -7.21875 z m 9.602344,-1.3875 v 17.203125 h 6.103125 c 4.059375,0 7.18125,-3.815625 7.18125,-8.45625 0,-4.78125 -3.121875,-8.746875 -7.18125,-8.746875 z m 2.034375,15.815625 V 14.072744 h 3.525 c 3.31875,0 5.7,3.046875 5.7,7.359375 0,4.14375 -2.353125,7.06875 -5.7,7.06875 z m 23.875781,-6.45 V 20.541494 H 51.2751 v -6.215625 h 3.01875 c 0.3,0 0.6,0.01875 0.9,0.01875 h 4.0875 v -1.6125 h -10.0875 v 17.15625 h 2.08125 v -7.8375 z m 20.369531,-9.39375 h -1.9875 v 1.9875 h 1.9875 z m -0.075,6.571875 h -1.8375 v 10.659375 h 1.8375 z m -6.421875,1.434375 h 2.7 v -1.434375 h -2.746875 v -3.24375 c 0,-1.3125 0.590625,-1.9875 1.3875,-1.9875 0.46875,0 0.9375,0.121875 1.359375,0.346875 v -1.659375 c -0.196875,-0.04687 -0.76875,-0.196875 -1.359375,-0.196875 -1.85625,0 -3.16875,1.884375 -3.16875,4.284375 v 2.45625 h -1.715625 v 1.434375 h 1.715625 v 9.225 h 1.828125 z M 84.1626,12.685244 H 82.334475 V 29.888369 H 84.1626 Z m 11.545312,11.775 c 0,-0.815625 -0.04687,-2.409375 -0.84375,-3.721875 -0.871875,-1.40625 -2.278125,-1.809375 -3.346875,-1.809375 -2.578125,0 -4.7625,2.428125 -4.7625,5.578125 0,3.075 2.259375,5.578125 5.109375,5.578125 1.115625,0 2.475,-0.31875 3.721875,-1.209375 0,-0.103125 -0.05625,-0.646875 -0.075,-0.675 0,-0.04687 -0.075,-0.815625 -0.075,-0.91875 -1.190625,0.965625 -2.559375,1.29375 -3.54375,1.29375 -1.59375,0 -3.3,-1.340625 -3.375,-4.115625 z m -6.99375,-1.359375 c 0.328125,-1.36875 1.415625,-2.653125 2.803125,-2.653125 0.375,0 2.109375,0.04687 2.55,2.653125 z M 104.3751,19.678994 c -1.4625,-0.69375 -2.59688,-0.75 -3.34688,-0.75 -1.75312,0 -3.862495,0.61875 -3.862495,3.121875 0,2.5125 2.728125,3.05625 3.468745,3.20625 1.14375,0.215625 2.40938,0.46875 2.40938,1.70625 0,1.565625 -1.79063,1.565625 -2.10938,1.565625 -0.993745,0 -2.35312,-0.28125 -3.599995,-1.171875 l -0.290625,1.659375 c 1.40625,0.825 2.775,1.06875 3.90937,1.06875 3.05625,0 3.825,-1.85625 3.825,-3.271875 0,-1.209375 -0.69375,-2.034375 -1.17187,-2.4 -0.81563,-0.646875 -1.11563,-0.721875 -3.14063,-1.14375 -0.34687,-0.04687 -1.56562,-0.31875 -1.56562,-1.434375 0,-1.415625 1.56562,-1.415625 1.9125,-1.415625 1.60312,0 2.59687,0.496875 3.27187,0.871875 z m 12.51328,-6.103125 h -2.09062 v 2.08125 h 2.09062 z m -0.13125,5.653125 h -1.82812 v 10.659375 h 1.82812 z m 11.98594,3.421875 c 0,-1.565625 -0.36563,-3.61875 -3.16875,-3.61875 -1.58438,0 -2.625,0.815625 -3.31875,1.659375 v -1.5375 h -1.80938 v 10.734375 h 1.88438 v -6 c 0,-1.55625 0.59062,-3.346875 2.27812,-3.346875 2.18438,0 2.25,1.4625 2.25,2.30625 v 7.040625 h 1.88438 z m 6.00469,-1.9875 h 3.21562 v -1.434375 h -3.21562 v -3.046875 h -1.7625 v 3.046875 h -1.95938 v 1.434375 h 1.9125 v 6.271875 c 0,1.415625 0.31875,3.15 1.95,3.15 1.24688,0 2.38125,-0.346875 3.47813,-0.91875 l -0.40313,-1.4625 c -0.59062,0.525 -1.3125,0.825 -2.08125,0.825 -1.0875,0 -1.13437,-1.3875 -1.13437,-2.015625 z m 15.23203,3.91875 c 0,-3.16875 -2.3625,-5.653125 -5.1375,-5.653125 -2.85,0 -5.15625,2.559375 -5.15625,5.653125 0,3.15 2.38125,5.503125 5.1375,5.503125 2.82187,0 5.15625,-2.428125 5.15625,-5.503125 z m -5.1375,3.946875 c -1.75313,0 -3.27188,-1.44375 -3.27188,-4.14375 0,-2.878125 1.7625,-3.9375 3.25313,-3.9375 1.6125,0 3.27187,1.1625 3.27187,3.9375 0,2.803125 -1.6125,4.14375 -3.25312,4.14375 z m 23.36015,-6.721875 0.0469,-0.02812 c 3.8625,-1.33125 3.89062,-4.0125 3.89062,-4.48125 0,-2.353125 -2.38125,-4.6125 -5.94375,-4.6125 h -5.55937 v 17.203125 h 2.03437 v -7.85625 h 3.64688 l 4.3875,7.85625 h 2.08125 z m -5.53125,-1.284375 v -6.45 h 3.24375 c 3.15,0 4.26563,1.78125 4.26563,3.225 0,1.340625 -0.99375,3.225 -4.26563,3.225 z m 0,0"
       style="fill:#cb6015;fill-opacity:1;fill-rule:nonzero;stroke:none"
       aria-label="Gettingdataoutof&#10;PDFflesintoR"
       transform="matrix(1.6666667,0,0,1.6666667,16.604,100.04933)" />
  </g>
</svg>
